<svg xmlns="http://www.w3.org/2000/svg" width="300" height="164"><g filter="blur(12px)"><rect width="200%" height="200%" x="-50%" y="-50%" fill="#a67f61"/><rect width="100%" height="100%" fill="#a67f61"/><g fill-opacity=".5" transform="translate(.6 .6)scale(1.17188)"><circle r="1" fill="#4f4b4e" transform="matrix(5.38893 76.20545 -114.32795 8.0848 135.1 34)"/><ellipse cx="133" cy="82" fill="#98806f" rx="31" ry="112"/><path fill="#3a3947" d="m162 57 20-42 77 74z"/><ellipse cx="77" cy="52" fill="#574235" rx="19" ry="59"/><path fill="#d3b88c" d="M20.8 62 25 45.5 51.2 52 47 68.5z"/><path fill="#cbac89" d="M7.5 140 37 100.7 86.5 138 57 177.2z"/><circle r="1" fill="#5c5545" transform="matrix(9.55527 14.4645 -23.44093 15.48512 32 26.6)"/><path fill="#999ca3" d="m207 68 64 7-6-36z"/></g></g></svg>