<svg xmlns="http://www.w3.org/2000/svg" width="300" height="175"><g filter="blur(12px)"><rect width="200%" height="200%" x="-50%" y="-50%" fill="#a18c77"/><rect width="100%" height="100%" fill="#a18c77"/><g fill-opacity=".5" transform="translate(.6 .6)scale(1.17188)"><circle r="1" fill="#007aff" transform="matrix(3.03758 28.90065 -253.60308 26.65476 140.7 9.1)"/><circle r="1" fill="#ffcc54" transform="matrix(-12.90693 -48.50782 159.33032 -42.39452 125.5 148.9)"/><circle r="1" fill="#3e363b" transform="matrix(66.74465 -41.56175 4.39205 7.05325 34.7 101.2)"/><circle r="1" fill="#001659" transform="matrix(54.79734 -4.0135 .509 6.94956 105.3 68.4)"/><ellipse cx="233" cy="60" fill="#000048" rx="81" ry="4"/><circle r="1" fill="#a6a9c6" transform="matrix(-.73224 -12.75304 155.79813 -8.94547 163.9 45.9)"/><circle r="1" fill="#084896" transform="rotate(83.6 3 40.3)scale(10.21773 130.19127)"/><circle r="1" fill="#7cc2f6" transform="matrix(-.09484 -10.89176 133.60473 -1.16331 123.7 4.5)"/></g></g></svg>