<svg xmlns="http://www.w3.org/2000/svg" width="300" height="189"><g filter="blur(12px)"><rect width="200%" height="200%" x="-50%" y="-50%" fill="#5d82a5"/><rect width="100%" height="100%" fill="#5d82a5"/><g fill-opacity=".5" transform="translate(.6 .6)scale(1.17188)"><circle r="1" fill="#8b5a2f" transform="matrix(243.95237 3.45411 -.95901 67.732 166.2 124.7)"/><circle r="1" fill="#004ba6" transform="matrix(-1.2706 51.98998 -205.99779 -5.03448 136.7 35.6)"/><circle r="1" fill="#b19175" transform="matrix(48.98693 -68.1075 42.04376 30.24035 129.2 136)"/><circle r="1" fill="#005eb5" transform="matrix(3.50782 -54.61217 224.34785 14.41017 123 2.1)"/><path fill="#2b1a0a" d="m153 74-49-28 46 1z"/><path fill="#23201a" d="m201.2 52 66.6 18-7 26-66.6-17.8z"/><ellipse cx="36" cy="52" fill="#0fbef9" rx="47" ry="11"/><circle r="1" fill="#5b7182" transform="matrix(-144.35625 4.16125 -.61709 -21.40719 93.3 86.7)"/></g></g></svg>