<svg xmlns="http://www.w3.org/2000/svg" width="300" height="168"><g filter="blur(12px)"><rect width="200%" height="200%" x="-50%" y="-50%" fill="#708096"/><rect width="100%" height="100%" fill="#708096"/><g fill-opacity=".5" transform="translate(.6 .6)scale(1.17188)"><ellipse cx="133" cy="43" fill="#cfcab5" rx="210" ry="82"/><circle r="1" fill="#8a918c" transform="matrix(3.9528 -50.28826 167.1674 13.13985 127.1 111.9)"/><circle r="1" fill="#c0c7c5" transform="matrix(4.2915 42.12473 -185.04356 18.85146 120.5 3.4)"/><path fill="#283141" d="m117 72-3.8-11.7 58.3 21.5-17.8 2.6z"/><ellipse cx="185" cy="78" fill="#334257" rx="28" ry="4"/><circle r="1" fill="#a2aca7" transform="rotate(-141.6 58.4 59.8)scale(16.26299 46.31445)"/><circle r="1" fill="#5a6875" transform="matrix(-4.26168 -2.30031 6.49086 -12.0253 243.7 68)"/><path fill="#0a2241" d="m147 79 15-9 9 8z"/></g></g></svg>