<svg xmlns="http://www.w3.org/2000/svg" width="300" height="168"><g filter="blur(12px)"><rect width="200%" height="200%" x="-50%" y="-50%" fill="#b17a5d"/><rect width="100%" height="100%" fill="#b17a5d"/><g fill-opacity=".5" transform="translate(.6 .6)scale(1.17188)"><circle r="1" fill="#000032" transform="matrix(5.82042 -47.7476 75.00578 9.14318 231.4 84.6)"/><circle r="1" fill="#68f9ff" transform="matrix(-179.42472 13.80598 -2.02668 -26.33905 101.4 .1)"/><circle r="1" fill="#000013" transform="matrix(-6.2496 -22.1002 48.78577 -13.79588 12.4 89.2)"/><circle r="1" fill="#00001f" transform="matrix(1.27259 13.6696 -21.24817 1.97812 152.7 61.7)"/><circle cx="255" cy="89" r="55" fill="#002144"/><circle r="1" fill="#043b86" transform="matrix(.83842 7.35871 -84.5758 9.6362 21.2 36.2)"/><circle r="1" fill="#ffde76" transform="matrix(.92742 -6.73806 32.60628 4.4879 185.8 90.1)"/><path fill="#07256d" d="m104 27.2 59.2 6.8L196 16.1l-57.1-3.7z"/></g></g></svg>