<svg xmlns="http://www.w3.org/2000/svg" width="300" height="167"><g filter="blur(12px)"><rect width="200%" height="200%" x="-50%" y="-50%" fill="#6083a9"/><rect width="100%" height="100%" fill="#6083a9"/><g fill-opacity=".5" transform="translate(.6 .6)scale(1.17188)"><circle r="1" fill="#1e0000" transform="matrix(225.43255 10.63113 -3.79761 80.5282 137.5 93.2)"/><ellipse cx="130" cy="51" fill="#cd822c" rx="65" ry="31"/><circle r="1" fill="#291000" transform="matrix(2.09008 49.86786 -207.18525 8.68363 82.5 125.2)"/><circle r="1" fill="#004aa2" transform="matrix(-21.44109 45.82302 -55.62788 -26.0289 220.6 0)"/><circle r="1" fill="#0062b6" transform="matrix(-5.95942 -18.65342 123.23927 -39.37268 20 37.8)"/><circle r="1" fill="#f19231" transform="matrix(-26.76291 -16.2082 2.93503 -4.8463 222.3 70.5)"/><circle r="1" fill="#cea669" transform="matrix(4.12298 11.8396 -39.97259 13.91993 110.7 33.6)"/><ellipse cx="246" cy="50" fill="#000d3b" rx="36" ry="22"/></g></g></svg>