<svg xmlns="http://www.w3.org/2000/svg" width="300" height="176"><g filter="blur(12px)"><rect width="200%" height="200%" x="-50%" y="-50%" fill="#a9716b"/><rect width="100%" height="100%" fill="#a9716b"/><circle r="1" fill="#267f8e" fill-opacity=".5" transform="matrix(-27.89329 172.21837 -140.34758 -22.73135 206.6 20.4)"/><circle r="1" fill="#64b8ff" fill-opacity=".5" transform="matrix(-184.90674 -.87895 .13533 -28.46878 135.7 9.4)"/><circle r="1" fill="#ffd579" fill-opacity=".5" transform="matrix(7.6139 -37.5036 64.331 13.06033 43.2 157.6)"/><circle r="1" fill="#1d091a" fill-opacity=".5" transform="matrix(-5.14272 -14.35546 86.08474 -30.83914 244.2 152.8)"/><circle r="1" fill="#dc8982" fill-opacity=".5" transform="rotate(87.4 12 58.5)scale(28.65244 91.26372)"/><circle r="1" fill="#00753d" fill-opacity=".5" transform="matrix(4.45096 8.66317 -29.44093 15.12616 56.8 100.7)"/><circle r="1" fill="#d67152" fill-opacity=".5" transform="matrix(31.2462 -24.2055 19.07784 24.62705 161.3 102)"/><path fill="#000038" fill-opacity=".5" d="M233.2 106.6 254.4 90l43.3 55.4-21.2 16.6z"/></g></svg>