<svg xmlns="http://www.w3.org/2000/svg" width="300" height="194"><g filter="blur(12px)"><rect width="200%" height="200%" x="-50%" y="-50%" fill="#56a17d"/><rect width="100%" height="100%" fill="#56a17d"/><g fill-opacity=".5" transform="translate(.6 .6)scale(1.17188)"><circle r="1" fill="#ff5d7c" transform="matrix(-29.53988 142.99906 -183.79846 -37.96798 150.1 99.6)"/><circle r="1" fill="#fff" transform="rotate(178.7 71.4 13.6)scale(215.87347 32.64106)"/><circle r="1" fill="#6d0000" transform="matrix(94.47005 4.95097 -3.4222 65.29952 62.6 141)"/><circle r="1" fill="#fffacd" transform="matrix(-1.95027 18.18459 -122.22635 -13.1086 255 119.1)"/><ellipse cx="21" cy="135" fill="#190000" rx="109" ry="21"/><circle r="1" fill="#ff9e96" transform="matrix(-12.75702 -21.1649 29.2797 -17.64818 76.7 98.2)"/><circle r="1" fill="#79003f" transform="rotate(-7.9 694 -1334.2)scale(95.55463 13.85173)"/><circle r="1" fill="#ff7f34" transform="matrix(2.73853 33.48828 -95.93154 7.84486 174.8 165)"/></g></g></svg>