<svg xmlns="http://www.w3.org/2000/svg" width="300" height="199"><g filter="blur(12px)"><rect width="200%" height="200%" x="-50%" y="-50%" fill="#a5825c"/><rect width="100%" height="100%" fill="#a5825c"/><g fill-opacity=".5" transform="translate(.6 .6)scale(1.17188)"><circle cx="96" cy="91" r="196" fill="#bfffff"/><circle r="1" fill="#f2fcff" transform="matrix(1.9526 -28.21763 200.76227 13.89238 82.3 143.6)"/><circle r="1" fill="#7e9ae0" transform="matrix(-163.39921 10.39085 -4.36087 -68.57597 108.2 31.7)"/><path fill="#f6faff" d="m178.4 153-11.7-83 120.9-17 11.7 83.2z"/><ellipse cx="94" cy="90" fill="#1b1424" rx="68" ry="9"/><circle r="1" fill="#4c506e" transform="matrix(-.95703 -12.4042 110.0373 -8.48977 124.7 51)"/><circle r="1" fill="#bce7ff" transform="matrix(4.6588 22.09574 -96.89296 20.42953 57 16.6)"/><circle r="1" fill="#f8fbff" transform="rotate(72 -67.9 65.1)scale(47.22659 23.52502)"/></g></g></svg>