<svg xmlns="http://www.w3.org/2000/svg" width="300" height="87"><g filter="blur(12px)"><rect width="200%" height="200%" x="-50%" y="-50%" fill="#79639a"/><rect width="100%" height="100%" fill="#79639a"/><g fill-opacity=".5" transform="translate(.6 .6)scale(1.17188)"><circle r="1" fill="#fffff2" transform="matrix(-2.56149 -28.64037 49.18809 -4.3992 166.8 16.7)"/><circle r="1" fill="#100000" transform="matrix(254.99973 .37322 -.0407 27.80695 141.4 72.1)"/><circle r="1" fill="#008fe5" transform="matrix(.44428 -22.13371 59.26837 1.18967 51.4 11.2)"/><circle r="1" fill="#0c272e" transform="matrix(-49.87962 -15.05955 7.378 -24.43714 230.7 56)"/><circle r="1" fill="#0083d9" transform="matrix(6.2369 -12.50927 75.49138 37.63861 227.4 1.9)"/><circle r="1" fill="#6b2018" transform="matrix(59.90019 4.83992 -2.04372 25.29361 52.1 54.9)"/><circle r="1" fill="#d5d2d6" transform="matrix(-11.81134 -25.6797 28.72632 -13.21263 169.3 26)"/><ellipse cx="117" cy="32" fill="#1b499d" rx="225" ry="5"/></g></g></svg>