<svg xmlns="http://www.w3.org/2000/svg" width="300" height="199"><g filter="blur(12px)"><rect width="200%" height="200%" x="-50%" y="-50%" fill="#92ae75"/><rect width="100%" height="100%" fill="#92ae75"/><g fill-opacity=".5" transform="translate(.6 .6)scale(1.17188)"><circle r="1" fill="#167900" transform="matrix(-32.70456 135.99235 -247.93127 -59.62455 165.9 129.4)"/><circle r="1" fill="#014205" transform="matrix(-1.47175 17.68442 -143.97045 -11.98168 73.1 18.8)"/><circle r="1" fill="#6da81a" transform="matrix(-.66854 60.3685 -195.45852 -2.16457 111.4 96.4)"/><ellipse cx="33" cy="101" fill="#1e2004" rx="37" ry="12"/><path fill="#b5cf0d" d="M98.4 68.2-6 96.2l-4.4-16.4L94 51.8z"/><path fill="#96c2e5" d="m85 116 9 10-29 25z"/><path fill="#7cb546" d="M124 95h112v46H124z"/><path fill="#165912" d="m55 7 59.4 8.4L109 53l-59.5-8.4z"/></g></g></svg>