<svg xmlns="http://www.w3.org/2000/svg" width="300" height="223"><g filter="blur(12px)"><rect width="200%" height="200%" x="-50%" y="-50%" fill="#84777d"/><rect width="100%" height="100%" fill="#84777d"/><g fill-opacity=".5" transform="translate(.6 .6)scale(1.17188)"><circle r="1" fill="#abffff" transform="matrix(2.25872 41.70612 -192.3615 10.41793 105.2 0)"/><circle r="1" fill="#0d4472" transform="rotate(-164.4 45.6 66.5)scale(255 73.79938)"/><circle r="1" fill="#bdd6ff" transform="rotate(-7.2 193.2 -549.3)scale(131.09722 20.58102)"/><circle r="1" fill="#3a8be0" transform="matrix(-109.577 27.2197 -5.00978 -20.1676 247.7 12.9)"/><ellipse cx="187" cy="53" fill="#e0cc9d" rx="96" ry="12"/><circle r="1" fill="#75a1d2" transform="matrix(-20.94206 4.35972 -8.64103 -41.50742 99.2 181.1)"/><path fill="#fff" d="m174.2 162.2 26.4 24.5-4.8 5.1-26.4-24.5z"/><circle r="1" fill="#00143b" transform="matrix(4.39103 -8.05372 48.61217 26.50422 167.6 179.8)"/></g></g></svg>