<svg xmlns="http://www.w3.org/2000/svg" width="300" height="142"><g filter="blur(12px)"><rect width="200%" height="200%" x="-50%" y="-50%" fill="#8f7c6d"/><rect width="100%" height="100%" fill="#8f7c6d"/><g fill-opacity=".5" transform="translate(.6 .6)scale(1.17188)"><circle r="1" fill="#3f5d45" transform="matrix(33.62455 29.53989 -98.4595 112.0741 86.4 33.6)"/><circle r="1" fill="#2e5b3a" transform="matrix(8.85266 12.18464 -37.31314 27.10958 235.9 82.9)"/><circle r="1" fill="#95a1a3" transform="rotate(-96.2 120.4 -25.7)scale(41.55667 34.75737)"/><circle r="1" fill="#203715" transform="rotate(-40.3 73.2 -56.9)scale(38.24554 10.94013)"/><circle r="1" fill="#556955" transform="matrix(11.86055 25.45533 -60.79532 28.32671 192 11.6)"/><circle r="1" fill="#868279" transform="matrix(37.17828 -34.58877 11.27233 12.11624 74.7 51)"/><circle r="1" fill="#485b52" transform="matrix(6.74881 .20655 -1.14387 37.37504 121 107.8)"/><circle cx="235" cy="41" r="24" fill="#95a093"/></g></g></svg>