<svg xmlns="http://www.w3.org/2000/svg" width="300" height="225"><g filter="blur(12px)"><rect width="200%" height="200%" x="-50%" y="-50%" fill="#849082"/><rect width="100%" height="100%" fill="#849082"/><circle r="1" fill="#58ceff" fill-opacity=".5" transform="matrix(-296.7419 -35.2491 12.30114 -103.55625 165.3 20.4)"/><path fill="#07001d" fill-opacity=".5" d="M46.6 145 147 210.1l-51.7 79.6-100.3-65z"/><circle r="1" fill="#decdff" fill-opacity=".5" transform="matrix(45.97579 11.23006 -7.9986 32.74622 258.2 211.2)"/><path fill="#1d4850" fill-opacity=".5" d="m123.6 140-141.8 20 129-88z"/><circle r="1" fill="#004886" fill-opacity=".5" transform="matrix(-5.94716 -21.57417 39.53987 -10.8996 221.4 92)"/><circle r="1" fill="#e1e8ff" fill-opacity=".5" transform="rotate(-.8 3266 -16106)scale(172.45588 13.65584)"/><circle r="1" fill="#d4c2d7" fill-opacity=".5" transform="rotate(-6.9 1454.7 -1096.4)scale(20.45464 62.3941)"/><circle r="1" fill="#1db4ff" fill-opacity=".5" transform="matrix(4.27537 34.20901 -186.70428 23.33392 160.9 .6)"/></g></svg>