<svg xmlns="http://www.w3.org/2000/svg" width="300" height="223"><g filter="blur(12px)"><rect width="200%" height="200%" x="-50%" y="-50%" fill="#64957c"/><rect width="100%" height="100%" fill="#64957c"/><g fill-opacity=".5" transform="translate(.6 .6)scale(1.17188)"><circle r="1" fill="#722e23" transform="rotate(-94.7 157.8 .6)scale(92.32606 173.55892)"/><circle r="1" fill="#6da8eb" transform="rotate(174.8 59 5.9)scale(255 35.68974)"/><circle r="1" fill="#21191e" transform="rotate(15.9 -487.6 597.2)scale(34.94408 64.87019)"/><circle r="1" fill="#a79066" transform="matrix(13.25643 41.28896 -126.25982 40.5376 73 79.5)"/><path fill="#b49659" d="m95 114-111 57 105 18z"/><ellipse cx="129" cy="59" fill="#667e27" rx="46" ry="22"/><circle r="1" fill="#d1aa91" transform="matrix(34.59281 16.22282 -5.1934 11.07418 213.6 187.5)"/><circle r="1" fill="#068dbe" transform="matrix(49.8039 -1.12264 .42954 19.05574 155.4 1.9)"/></g></g></svg>