<svg xmlns="http://www.w3.org/2000/svg" width="300" height="176"><g filter="blur(12px)"><rect width="200%" height="200%" x="-50%" y="-50%" fill="#7f9fbd"/><rect width="100%" height="100%" fill="#7f9fbd"/><g fill-opacity=".5" transform="translate(.6 .6)scale(1.17188)"><circle r="1" fill="#ffd7a6" transform="matrix(-205.33588 151.20243 -78.3867 -106.45068 100.8 66.1)"/><circle r="1" fill="#d77904" transform="matrix(-109.99457 -19.09523 5.24594 -30.21827 77.2 150)"/><circle r="1" fill="#ac4000" transform="matrix(27.18487 -9.08911 12.73477 38.08875 253.6 131.3)"/><ellipse cx="82" cy="30" fill="#c2e4ff" rx="75" ry="53"/><circle r="1" fill="#c16800" transform="rotate(-136.4 31.2 36.4)scale(43.41298 16.9919)"/><path fill="#bb6500" d="m173 113-18-39 116 37z"/><circle r="1" fill="#c7e2ff" transform="matrix(-43.68903 -13.01669 10.19178 -34.20753 112 92.9)"/><path fill="#585d68" d="m92.1 23.5 16.1 10-24.3 39-16.1-10z"/></g></g></svg>