<svg xmlns="http://www.w3.org/2000/svg" width="299" height="515"><g filter="blur(12px)"><rect width="200%" height="200%" x="-50%" y="-50%" fill="#8a7849"/><rect width="100%" height="100%" fill="#8a7849"/><g fill-opacity=".5" transform="translate(1 1)scale(2.01172)"><circle r="1" fill="#000004" transform="rotate(-40.7 256.2 -67.2)scale(148 109.51812)"/><circle r="1" fill="#ffffda" transform="rotate(75.6 23.8 30.7)scale(25.24064 90.97522)"/><circle r="1" fill="#004da4" transform="matrix(-43.98382 -29.91744 33.20294 -48.81407 138.1 39.3)"/><circle cx="40" cy="238" r="73"/><circle r="1" fill="#b78c81" transform="matrix(22.46033 2.685 -4.7011 39.32518 70.2 54.4)"/><circle r="1" fill="#00031d" transform="matrix(-31.26973 1.87876 -6.89814 -114.81156 138 154.5)"/><circle r="1" fill="#00a0ea" transform="matrix(7.06663 20.22405 -31.0353 10.84427 129.1 0)"/><circle r="1" fill="#ffce32" transform="matrix(25.53368 -20.75066 14.26596 17.55426 4.5 27.5)"/></g></g></svg>