<svg xmlns="http://www.w3.org/2000/svg" width="300" height="199"><g filter="blur(12px)"><rect width="200%" height="200%" x="-50%" y="-50%" fill="#5580a5"/><rect width="100%" height="100%" fill="#5580a5"/><g fill-opacity=".5" transform="translate(.6 .6)scale(1.17188)"><circle r="1" fill="#dcf5ff" transform="matrix(-6.88187 59.64641 -173.68878 -20.03981 115.2 20.7)"/><circle r="1" fill="#baaa93" transform="matrix(-1.90496 -33.23706 203.37783 -11.65644 145.4 157.5)"/><ellipse cx="122" cy="77" fill="#7191b8" rx="255" ry="31"/><circle r="1" fill="#c1e0f8" transform="matrix(.26292 29.97947 -214.23436 1.87886 118.5 13.4)"/><path fill="#312f30" d="m2.3 113.2 33.5 6.4L21.1 141l-15.2-7.1z"/><circle r="1" fill="#7a98ae" transform="matrix(117.66393 .92855 -.21303 26.99419 53.1 76.1)"/><path fill="#656873" d="M46 113h96v16H46z"/><path fill="#8bb7ed" d="M167 29h45v60h-45z"/></g></g></svg>