<svg xmlns="http://www.w3.org/2000/svg" width="300" height="241"><g filter="blur(12px)"><rect width="200%" height="200%" x="-50%" y="-50%" fill="#ad674d"/><rect width="100%" height="100%" fill="#ad674d"/><g fill-opacity=".5" transform="translate(.6 .6)scale(1.17188)"><circle r="1" fill="#f9d789" transform="matrix(151.32182 -205.24792 90.43847 66.677 105.8 49.2)"/><ellipse cx="216" cy="96" fill="#300200" rx="37" ry="33"/><ellipse cx="164" cy="102" fill="#fff" rx="20" ry="41"/><circle r="1" fill="#fff" transform="matrix(28.24806 -4.57519 3.85476 23.8 241.2 19.8)"/><circle r="1" fill="#dd261e" transform="matrix(23.26542 27.15754 -34.97136 29.9594 43.4 190.8)"/><circle r="1" fill="#ffff69" transform="rotate(64.9 -96.6 196)scale(58.17201 28.80971)"/><circle r="1" fill="#c2ffff" transform="matrix(-5.48165 -15.2639 49.97342 -17.9467 105.6 0)"/><circle r="1" fill="#c33041" transform="matrix(-10.37967 -26.26977 33.8555 -13.37693 116.2 99.5)"/></g></g></svg>