<svg xmlns="http://www.w3.org/2000/svg" width="300" height="199"><g filter="blur(12px)"><rect width="200%" height="200%" x="-50%" y="-50%" fill="#549e9f"/><rect width="100%" height="100%" fill="#549e9f"/><g fill-opacity=".5" transform="translate(.6 .6)scale(1.17188)"><circle r="1" fill="#fff" transform="matrix(-179.49913 -10.66421 5.15365 -86.74586 125.6 27.7)"/><circle r="1" fill="#004222" transform="rotate(-175.1 48.3 77.2)scale(78.60449 37.74576)"/><ellipse cx="126" cy="12" fill="#fff" rx="255" ry="35"/><circle r="1" fill="#a5908e" transform="matrix(73.73657 -16.21204 5.713 25.98425 109.8 93.1)"/><circle r="1" fill="#004713" transform="matrix(-67.40672 8.03776 -.80304 -6.73451 168.1 119.8)"/><circle r="1" fill="#5cacd6" transform="matrix(116.5587 -18.43486 3.0551 19.31656 38.1 77)"/><path fill="#fffff4" d="M152 129h20v14h-20z"/><circle r="1" fill="#713e14" transform="matrix(.58272 -3.85304 23.9047 3.61525 92.1 78.7)"/></g></g></svg>