<svg xmlns="http://www.w3.org/2000/svg" width="300" height="225"><g filter="blur(12px)"><rect width="200%" height="200%" x="-50%" y="-50%" fill="#92af81"/><rect width="100%" height="100%" fill="#92af81"/><g fill-opacity=".5" transform="translate(.6 .6)scale(1.17188)"><circle r="1" fill="#003137" transform="matrix(-11.06661 86.38842 -197.16298 -25.25716 135.8 161.1)"/><circle r="1" fill="#63daff" transform="matrix(254.3152 18.67574 -6.36363 86.65619 138 37.2)"/><ellipse cx="255" cy="28" fill="#f8f9ff" rx="254" ry="29"/><circle r="1" fill="#423f00" transform="matrix(5.02389 -48.53451 191.85606 19.85934 141.6 171.9)"/><circle r="1" fill="#0082c9" transform="rotate(-88.5 79.6 5.3)scale(33.57056 175.28846)"/><circle r="1" fill="#1bcaf6" transform="matrix(-2.6172 15.6398 -53.6251 -8.97377 231.8 119.8)"/><circle r="1" fill="#f8fdff" transform="matrix(92.2355 7.08905 -2.44514 31.81371 255 31.6)"/><circle r="1" fill="#61404f" transform="matrix(-.2515 7.92823 -64.84269 -2.05688 172.7 90)"/></g></g></svg>