<svg xmlns="http://www.w3.org/2000/svg" width="300" height="194"><g filter="blur(12px)"><rect width="200%" height="200%" x="-50%" y="-50%" fill="#a1755c"/><rect width="100%" height="100%" fill="#a1755c"/><circle r="1" fill="#ffca28" fill-opacity=".5" transform="matrix(262.61527 142.58846 -48.43018 89.1973 141.7 .6)"/><path fill="#000065" fill-opacity=".5" d="m275.4 66.2-11 20.7-30-16 11-20.7z"/><circle r="1" fill="#ffed69" fill-opacity=".5" transform="rotate(-8.2 42.4 -533.7)scale(176.57828 46.70785)"/><circle r="1" fill="#14216d" fill-opacity=".5" transform="matrix(-11.0448 3.63553 -12.1208 -36.82321 260 141.7)"/><path fill="#110058" fill-opacity=".5" d="m172.4 36.8.6 35.5-17.4 15.8-12.2-18.5z"/><circle r="1" fill="#c27b36" fill-opacity=".5" transform="rotate(129.9 50.7 122.2)scale(49.81833 159.46315)"/><path fill="#8a625c" fill-opacity=".5" d="M.6 55.7h107.8v44.5H.6z"/><path fill="#f8b414" fill-opacity=".5" d="m212.7 164.6 38.7-60.9-39.9-121.9z"/></g></svg>