<svg xmlns="http://www.w3.org/2000/svg" width="300" height="225"><g filter="blur(12px)"><rect width="200%" height="200%" x="-50%" y="-50%" fill="#7389a4"/><rect width="100%" height="100%" fill="#7389a4"/><g fill-opacity=".5" transform="translate(.6 .6)scale(1.17188)"><circle cx="125" cy="119" r="182" fill="#ebffff"/><circle r="1" fill="#fff" transform="rotate(-86.3 128.7 50.4)scale(31.20008 143.86274)"/><circle r="1" fill="#fff" transform="matrix(-9.10642 -31.54992 54.12617 -15.62272 209.4 112.5)"/><circle r="1" fill="#67cbff" transform="rotate(-99.3 59.8 -29.9)scale(35.82881 255.00002)"/><path fill="#002136" d="M-21.1 141.4 115 104.9l2 7.7-136 36.5z"/><path fill="#3c6892" d="M73.5 89.6-11.9 111l-3.6-14.5L69.9 75z"/><path fill="#f4ffff" d="m2.2 137-6.5-20 172.1-56 6.5 20z"/><circle r="1" fill="#006694" transform="matrix(-1.11779 -3.1228 71.06482 -25.4373 140.3 100.2)"/></g></g></svg>