<svg xmlns="http://www.w3.org/2000/svg" width="298" height="450"><g filter="blur(12px)"><rect width="200%" height="200%" x="-50%" y="-50%" fill="#9f9a4d"/><rect width="100%" height="100%" fill="#9f9a4d"/><g fill-opacity=".5" transform="translate(.9 .9)scale(1.75781)"><circle r="1" fill="#000017" transform="matrix(-61.64178 -15.82692 42.0286 -163.69055 22.4 120.4)"/><circle r="1" fill="#230008" transform="matrix(16.24157 1.1017 -11.43728 168.61254 163.3 141)"/><circle r="1" transform="rotate(86.6 -100 114)scale(92.3051 33.12928)"/><ellipse cx="95" cy="161" fill="#d6a6a8" rx="46" ry="106"/><ellipse cx="59" cy="150" fill="#3c3f3f" rx="47" ry="26"/><path fill="#fff7e7" d="m-16 93.7 60.1 11.6 10.6 23.4-13.5-7.3z"/><circle r="1" transform="rotate(-148.1 30.8 -2.1)scale(49.94839 16.1289)"/><circle r="1" fill="#ed7167" transform="matrix(29.8618 -1.25158 3.0623 73.06406 128.5 34.3)"/></g></g></svg>