<svg xmlns="http://www.w3.org/2000/svg" width="300" height="249"><g filter="blur(12px)"><rect width="200%" height="200%" x="-50%" y="-50%" fill="#b07a50"/><rect width="100%" height="100%" fill="#b07a50"/><g fill-opacity=".5" transform="translate(.6 .6)scale(1.17188)"><ellipse cx="144" cy="11" fill="#7dffff" rx="174" ry="37"/><circle r="1" fill="#001060" transform="matrix(-103.97336 -24.41297 9.62652 -40.99876 217 92.5)"/><circle r="1" fill="#0b400c" transform="matrix(-33.03097 49.18642 -65.4395 -43.94567 49.7 180.9)"/><circle cx="114" cy="25" r="67" fill="#7cc2ff"/><circle r="1" fill="#002440" transform="matrix(-105.49994 -36.47617 11.77374 -34.05314 232.6 104)"/><path fill="#ffd684" d="m15 107.5-20.5-40 68.6-35 20.4 40z"/><circle r="1" fill="#9edeff" transform="matrix(-.48557 -29.05998 172.88398 -2.88877 153.6 16.9)"/><circle r="1" fill="#000a23" transform="rotate(149.1 42.2 103)scale(144.24168 7.51294)"/></g></g></svg>