<svg xmlns="http://www.w3.org/2000/svg" width="300" height="225"><g filter="blur(12px)"><rect width="200%" height="200%" x="-50%" y="-50%" fill="#8a7a61"/><rect width="100%" height="100%" fill="#8a7a61"/><g fill-opacity=".5" transform="translate(.6 .6)scale(1.17188)"><ellipse cx="201" cy="49" fill="#08130d" rx="254" ry="79"/><circle r="1" fill="#020" transform="matrix(-12.0968 -138.0624 36.60991 -3.2077 249.6 132)"/><circle r="1" fill="#dad79b" transform="matrix(3.3403 19.03203 -66.48129 11.66807 50.4 153.6)"/><circle r="1" fill="#a77f76" transform="rotate(18.4 -233 384.2)scale(22.26954 63.76296)"/><path fill="#1d7107" d="m-43.2 131.9-.6-32 101-1.8.6 32z"/><path fill="#001501" d="m114.3 166.6 31.5 17.4-14 25.4-31.6-17.4z"/><circle r="1" fill="#1d0013" transform="rotate(165.4 17.2 7.8)scale(49.12477 34.54989)"/><circle r="1" fill="#5e9a30" transform="matrix(11.76926 16.16106 -51.10028 37.21369 194.5 182.6)"/></g></g></svg>