<svg xmlns="http://www.w3.org/2000/svg" width="300" height="225"><g filter="blur(12px)"><rect width="200%" height="200%" x="-50%" y="-50%" fill="#5e8ca0"/><rect width="100%" height="100%" fill="#5e8ca0"/><g fill-opacity=".5" transform="translate(.6 .6)scale(1.17188)"><circle r="1" fill="#fff" transform="matrix(-241.41334 .7387 -.10439 -34.11503 124.9 7.2)"/><circle r="1" fill="#704300" transform="matrix(246.92466 -24.0682 4.92406 50.51771 100.2 167.5)"/><ellipse cx="191" cy="85" fill="#ddcdd0" rx="234" ry="21"/><circle r="1" fill="#00a6fa" transform="matrix(-.02738 15.68656 -237.59045 -.41467 146.2 52)"/><circle r="1" fill="#fff" transform="matrix(-.49744 23.35741 -254.9422 -5.42949 148.2 1.8)"/><circle r="1" fill="#323800" transform="matrix(-4.4891 -23.31156 124.4069 -23.957 191.6 189.4)"/><path fill="#d5c0ad" d="m272.7 108.7-106.8 7.5-2.6-37 106.8-7.4z"/><ellipse cx="57" cy="184" fill="#7c6b1d" rx="134" ry="41"/></g></g></svg>