<svg xmlns="http://www.w3.org/2000/svg" width="300" height="199"><g filter="blur(12px)"><rect width="200%" height="200%" x="-50%" y="-50%" fill="#aea070"/><rect width="100%" height="100%" fill="#aea070"/><circle r="1" fill="#000016" fill-opacity=".5" transform="matrix(112.20587 -117.41674 23.38577 22.34792 264 188.4)"/><path fill="#460009" fill-opacity=".5" d="m80.3 121.3 123 96L.6 195.2z"/><circle r="1" fill="#7f9fc0" fill-opacity=".5" transform="matrix(93.46539 43.78239 -55.83272 119.1901 205.3 55.5)"/><circle r="1" fill="#193755" fill-opacity=".5" transform="rotate(129.5 7.5 40.6)scale(22.4195 71.08337)"/><circle r="1" fill-opacity=".5" transform="rotate(7.1 -417.3 2276)scale(81.0564 10.44879)"/><circle r="1" fill="#b4dffb" fill-opacity=".5" transform="matrix(-106.49773 -9.18252 3.30191 -38.2952 164 7.4)"/><path fill="#0f100a" fill-opacity=".5" d="m152.7 119.8-3.3-23.2L247 83l3.3 23.2z"/><path fill-opacity=".5" d="m38 162.3-45.6-10.5 57.4 53.9z"/></g></svg>