<svg xmlns="http://www.w3.org/2000/svg" width="300" height="199"><g filter="blur(12px)"><rect width="200%" height="200%" x="-50%" y="-50%" fill="#aa836b"/><rect width="100%" height="100%" fill="#aa836b"/><g fill-opacity=".5" transform="translate(.6 .6)scale(1.17188)"><circle r="1" fill="#333e30" transform="matrix(120.15565 -44.61256 26.49983 71.37236 45.6 92)"/><circle r="1" fill="#97ffff" transform="matrix(-1.97539 17.07277 -253.22658 -29.29932 140.4 0)"/><circle r="1" fill="#7c4313" transform="matrix(138.18598 -166.86336 39.82482 32.98047 220.6 149.3)"/><ellipse cx="249" fill="#ccfcff" rx="148" ry="18"/><circle r="1" fill="#667454" transform="matrix(83.39998 11.7211 -3.84226 27.33908 188.5 45)"/><ellipse cx="1" cy="89" fill="#372c1b" rx="72" ry="34"/><circle r="1" fill="#174a45" transform="matrix(43.3117 -1.58817 .45753 12.4776 11 14)"/><circle r="1" fill="#af907a" transform="matrix(23.3819 -26.72249 40.00427 35.00332 166.7 98.3)"/></g></g></svg>