<svg xmlns="http://www.w3.org/2000/svg" width="300" height="196"><g filter="blur(12px)"><rect width="200%" height="200%" x="-50%" y="-50%" fill="#9f705f"/><rect width="100%" height="100%" fill="#9f705f"/><g fill-opacity=".5" transform="translate(.6 .6)scale(1.17188)"><circle r="1" transform="rotate(.8 -4988.1 8192.8)scale(255 82.3089)"/><circle r="1" transform="matrix(-10.32155 102.0291 -253.7051 -25.66552 121.8 29)"/><circle r="1" fill="#7d7561" transform="matrix(-17.41889 1.70614 -7.00556 -71.52328 57 102.3)"/><circle r="1" transform="matrix(47.13574 65.88609 -91.12059 65.18882 172.8 37.6)"/><ellipse cx="10" cy="67" rx="28" ry="79"/><path fill="#9f7268" d="m207 130-8 53-133-40z"/><path fill="#000005" d="m283.3 93.6-27.2 51.2-147.4-78.4 27.2-51.2z"/><path fill="#ab8a7a" d="m189 134 24-12-32-5z"/></g></g></svg>