<svg xmlns="http://www.w3.org/2000/svg" width="300" height="199"><g filter="blur(12px)"><rect width="200%" height="200%" x="-50%" y="-50%" fill="#848387"/><rect width="100%" height="100%" fill="#848387"/><g fill-opacity=".5" transform="translate(.6 .6)scale(1.17188)"><circle r="1" fill="#1c1f1e" transform="matrix(-193.20515 -32.67198 16.06275 -94.98677 168 62.6)"/><circle r="1" fill="#343127" transform="matrix(8.94627 18.4686 -99.28627 48.0947 21.2 139.8)"/><ellipse cx="112" cy="70" fill="#aece8e" rx="48" ry="14"/><circle r="1" fill="#242534" transform="matrix(14.65255 -42.78411 130.14046 44.57003 165.8 0)"/><ellipse cx="26" cy="88" fill="#7a7d93" rx="59" ry="21"/><path fill="#262107" d="M116 65h16v62h-16z"/><path fill="#dee3d0" d="m144.8 63 8.1 6-21.7 30-8.1-6z"/><path fill="#070000" d="m118.1 84 6.1 20.1L66 122l-6.1-20.1z"/></g></g></svg>