<svg xmlns="http://www.w3.org/2000/svg" width="300" height="200"><g filter="blur(12px)"><rect width="200%" height="200%" x="-50%" y="-50%" fill="#907c60"/><rect width="100%" height="100%" fill="#907c60"/><g fill-opacity=".5" transform="translate(.6 .6)scale(1.17188)"><circle r="1" fill="#1f2c48" transform="rotate(-90.8 72.9 -17.2)scale(116.75055 106.93319)"/><circle r="1" fill="#ffc1f0" transform="rotate(70 20.8 121.3)scale(15.98506 32.50069)"/><circle cx="27" cy="86" r="26"/><circle r="1" fill="#c0ecff" transform="matrix(-15.02809 -7.94087 11.83996 -22.40712 240.3 159.5)"/><circle r="1" fill="#a4a9a6" transform="matrix(-6.72715 -16.95068 46.5922 -18.49086 25 130.3)"/><path fill="#d1cce4" d="m174 101-10 58 51-66z"/><circle r="1" fill="#0f1510" transform="matrix(-25.78226 -12.11046 24.0699 -51.243 99.3 170)"/><path fill="#191817" d="m173.5 92.3 21.6 2.6 26.8-57.6-29.2 7.2z"/></g></g></svg>