<svg xmlns="http://www.w3.org/2000/svg" width="300" height="199"><g filter="blur(12px)"><rect width="200%" height="200%" x="-50%" y="-50%" fill="#a2805d"/><rect width="100%" height="100%" fill="#a2805d"/><g fill-opacity=".5" transform="translate(.6 .6)scale(1.17188)"><circle r="1" fill="#231907" transform="matrix(-28.8632 -68.6383 21.52613 -9.05199 147.3 45.7)"/><path fill="#000200" d="m23 215.7-69.5-52.3L-5 108.3l69.5 52.3z"/><ellipse cx="59" cy="70" fill="#f2a585" rx="41" ry="78"/><circle r="1" fill="#ffba99" transform="matrix(-17.86916 -10.71 20.44393 -34.1098 117.4 150.6)"/><circle r="1" fill="#974638" transform="matrix(34.42352 -15.81606 24.78405 53.94227 202.3 151)"/><circle r="1" fill="#451d0a" transform="matrix(-4.77137 46.61914 -7.76928 -.79517 3 43.9)"/><path fill="#633e1f" d="M35 40h40v14H35z"/><circle r="1" fill="#8e5f49" transform="rotate(163.3 84.8 35.6)scale(15.42093 57.43947)"/></g></g></svg>