<svg xmlns="http://www.w3.org/2000/svg" width="300" height="199"><g filter="blur(12px)"><rect width="200%" height="200%" x="-50%" y="-50%" fill="#93a860"/><rect width="100%" height="100%" fill="#93a860"/><g fill-opacity=".5" transform="translate(.6 .6)scale(1.17188)"><ellipse cx="69" cy="147" fill="#bed994" rx="63" ry="32"/><circle r="1" fill="#cede7a" transform="matrix(7.7055 73.30649 -32.66277 3.4333 225.7 152.8)"/><circle r="1" fill="#67565d" transform="matrix(-21.21631 -37.04577 11.68443 -6.69173 113.7 74.3)"/><path fill="#cda896" d="M143.8 13.8 159.2 76l-33 8.3L110.8 22z"/><circle r="1" fill="#cde798" transform="matrix(9.76997 .3906 -3.7701 94.30212 225.8 17.6)"/><path fill="#fff" d="m81-16 26 53-20-19z"/><path fill="#191e26" d="M102 115h19v11h-19z"/><path fill="#cfcea5" d="m88.2 126 39-2 2.6 52-39 2z"/></g></g></svg>