<svg xmlns="http://www.w3.org/2000/svg" width="300" height="199"><g filter="blur(12px)"><rect width="200%" height="200%" x="-50%" y="-50%" fill="#8b7d49"/><rect width="100%" height="100%" fill="#8b7d49"/><path fill="#fff" fill-opacity=".5" d="M58 184.6 290-18.2 178.7 217.4z"/><path fill="#ffbf00" fill-opacity=".5" d="M5.3 217.4-18.2.6l145.3-18.8z"/><circle r="1" fill="#00350c" fill-opacity=".5" transform="rotate(-153.2 57 43.2)scale(22.97139 190.26446)"/><circle r="1" fill="#007328" fill-opacity=".5" transform="matrix(89.02096 -176.41444 19.55896 9.8697 274.8 72.2)"/><circle r="1" fill="#f3d0b6" fill-opacity=".5" transform="matrix(-76.6116 105.09967 -25.11475 -18.3072 179.1 52.8)"/><circle r="1" fill="#ffff4b" fill-opacity=".5" transform="matrix(-24.77428 -9.18322 35.01655 -94.46688 281.2 167)"/><circle r="1" fill="#f7efe2" fill-opacity=".5" transform="matrix(22.66353 11.1972 -95.11972 192.52574 208.2 94.8)"/><circle r="1" fill="#a95f11" fill-opacity=".5" transform="matrix(10.45523 5.65312 -36.20844 66.9661 152 119.5)"/></g></svg>