<svg xmlns="http://www.w3.org/2000/svg" width="300" height="167"><g filter="blur(12px)"><rect width="200%" height="200%" x="-50%" y="-50%" fill="#997d71"/><rect width="100%" height="100%" fill="#997d71"/><g fill-opacity=".5" transform="translate(.6 .6)scale(1.17188)"><circle r="1" fill="#67e9ff" transform="rotate(-172 63 -2)scale(224.71972 47.64985)"/><circle r="1" fill="#2b414e" transform="rotate(-77 115.3 -18)scale(65.78067 189.2981)"/><circle r="1" fill="#fbffff" transform="matrix(-.44478 14.15328 -186.72427 -5.86805 136 5.2)"/><ellipse cx="156" cy="142" rx="25" ry="33"/><circle r="1" fill="#448ce5" transform="rotate(5.8 -321 1056.7)scale(178.13409 20.6209)"/><circle r="1" fill="#0b1700" transform="matrix(-2.12748 -18.67265 32.53728 -3.70716 57.1 126)"/><circle r="1" fill="#c4a8a4" transform="rotate(-81.5 66.3 44)scale(18.29962 25.471)"/><circle r="1" fill="#ab8264" transform="matrix(-17.66746 -33.79316 22.73674 -11.88703 97.6 85.7)"/></g></g></svg>