<svg xmlns="http://www.w3.org/2000/svg" width="300" height="199"><g filter="blur(12px)"><rect width="200%" height="200%" x="-50%" y="-50%" fill="#7c5d41"/><rect width="100%" height="100%" fill="#7c5d41"/><g fill-opacity=".5" transform="translate(.6 .6)scale(1.17188)"><circle r="1" fill="#001508" transform="rotate(-46.6 199 15.1)scale(115.18333 40.66775)"/><circle r="1" fill="#95e268" transform="matrix(21.1689 35.37066 -129.70972 77.62967 93.6 10.2)"/><path fill="#113e04" d="M243 153 198.4 23.7 241 8.9l44.6 129.5z"/><circle r="1" fill="#1d361a" transform="matrix(125.39599 12.95841 -5.64886 54.66292 0 147.4)"/><circle r="1" fill="#77b129" transform="matrix(-73.851 -90.71458 18.60598 -15.14719 255 38)"/><ellipse cx="55" cy="9" fill="#c9e2fe" rx="10" ry="22"/><circle r="1" fill="#7d9323" transform="matrix(21.75782 29.15428 -23.00723 17.17028 28.5 78.7)"/><circle r="1" fill="#20391e" transform="matrix(7.5729 9.21155 -23.42224 19.25563 148 39.7)"/></g></g></svg>