<svg xmlns="http://www.w3.org/2000/svg" width="300" height="199"><g filter="blur(12px)"><rect width="200%" height="200%" x="-50%" y="-50%" fill="#95705c"/><rect width="100%" height="100%" fill="#95705c"/><g fill-opacity=".5" transform="translate(.6 .6)scale(1.17188)"><circle r="1" fill="#63f5ff" transform="matrix(-9.81214 34.5235 -150.65892 -42.81971 204.6 23.7)"/><circle r="1" fill="#352f25" transform="matrix(68.25764 7.70343 -6.22456 55.1538 226.8 123.4)"/><circle r="1" fill="#d6c495" transform="matrix(-75.08077 -7.20456 3.06012 -31.8904 79.4 113.6)"/><circle r="1" fill="#96c9ff" transform="matrix(73.2404 18.714 -8.19798 32.08417 219.2 34.3)"/><circle r="1" fill="#4f5553" transform="matrix(-10.2489 34.37925 -102.69202 -30.61382 55.6 37.3)"/><path fill="#298bf6" d="m8-13 196-3-59 50z"/><ellipse cx="30" cy="158" fill="#d4c080" rx="68" ry="11"/><path fill="#0076e9" d="M78-1 7-16-12 9z"/></g></g></svg>