<svg xmlns="http://www.w3.org/2000/svg" width="300" height="168"><g filter="blur(12px)"><rect width="200%" height="200%" x="-50%" y="-50%" fill="#ab7f53"/><rect width="100%" height="100%" fill="#ab7f53"/><circle r="1" fill="#6a8095" fill-opacity=".5" transform="matrix(200.0083 37.06935 -28.89744 155.91664 160.6 83.3)"/><path fill="#743a1b" fill-opacity=".5" d="m169.2 99.5 65.3-31.8 28.7 59-65.3 31.8z"/><circle r="1" fill="#e09d5a" fill-opacity=".5" transform="matrix(71.5861 26.1968 -7.01717 19.17532 211 77.6)"/><circle r="1" fill="#d7e6ff" fill-opacity=".5" transform="matrix(8.85149 5.5373 -20.5766 32.89209 239.4 163.5)"/><path fill="#e4e9c6" fill-opacity=".5" d="m190 64-11.4 10.2-36.9-41 11.4-10.1z"/><path fill="#7f472f" fill-opacity=".5" d="m131.8 115.4 68-28.1-53.9-41z"/><path fill="#000415" fill-opacity=".5" d="M202.1 113h22.3v37.6h-22.3z"/><circle r="1" fill="#40596d" fill-opacity=".5" transform="matrix(-18.16533 -18.94263 24.10592 -23.11674 10.7 80.4)"/></g></svg>