<svg xmlns="http://www.w3.org/2000/svg" width="300" height="167"><g filter="blur(12px)"><rect width="200%" height="200%" x="-50%" y="-50%" fill="#618e9b"/><rect width="100%" height="100%" fill="#618e9b"/><g fill-opacity=".5" transform="translate(.6 .6)scale(1.17188)"><circle r="1" fill="#a86f0b" transform="rotate(2.5 -2252.6 3405.8)scale(255 64.00096)"/><circle r="1" fill="#efffff" transform="matrix(-223.56011 21.91542 -1.88016 -19.17957 129.9 5.1)"/><circle r="1" fill="#ffe" transform="matrix(49.70328 -2.7543 .93153 16.81008 187.1 42.4)"/><circle r="1" fill="#4d5800" transform="rotate(7.2 -390 2057.2)scale(25.61649 47.65452)"/><ellipse cx="9" cy="140" fill="#001345" rx="56" ry="18"/><circle r="1" fill="#9b9e00" transform="matrix(2.6938 -22.1319 87.67368 10.6713 114.9 63.6)"/><circle r="1" fill="#efe7d6" transform="matrix(-62.74255 36.37058 -6.33691 -10.93175 235.1 22)"/><circle r="1" fill="#737083" transform="matrix(-7.8496 26.48499 -127.83175 -37.88669 57.9 109.6)"/></g></g></svg>