<svg xmlns="http://www.w3.org/2000/svg" width="299" height="533"><g filter="blur(12px)"><rect width="200%" height="200%" x="-50%" y="-50%" fill="#b9a068"/><rect width="100%" height="100%" fill="#b9a068"/><g fill-opacity=".5" transform="translate(1 1)scale(2.08203)"><circle r="1" transform="matrix(-20.9102 -29.86285 37.12212 -25.99319 45 243.5)"/><path fill="#00000c" d="m156.4-6-42.2 46.8L75.6 6l42.2-46.8z"/><circle r="1" fill="#a0a7b3" transform="matrix(-104.14972 -96.37317 59.3962 -64.189 68 114.1)"/><circle r="1" fill="#000005" transform="matrix(-8.59073 -2.95159 17.3926 -50.62198 92.7 92.8)"/><circle r="1" fill="#00000c" transform="rotate(-129.6 81.4 114.7)scale(32.06319 38.02534)"/><circle r="1" fill="#e6ede5" transform="matrix(-15.70191 28.79934 -17.2438 -9.40163 23.2 165.8)"/><path fill="#fff" d="m145 32.3 5 143-13 .4-5-143z"/><ellipse cx="134" cy="171" fill="#feffff" rx="13" ry="23"/></g></g></svg>