<svg xmlns="http://www.w3.org/2000/svg" width="300" height="199"><g filter="blur(12px)"><rect width="200%" height="200%" x="-50%" y="-50%" fill="#5b969e"/><rect width="100%" height="100%" fill="#5b969e"/><g fill-opacity=".5" transform="translate(.6 .6)scale(1.17188)"><ellipse cx="209" cy="169" fill="#153100" rx="170" ry="92"/><ellipse cx="50" cy="99" fill="#b0ddf2" rx="81" ry="25"/><circle r="1" fill="#1a4202" transform="matrix(47.71869 -83.9315 62.12899 35.32301 245.7 108.6)"/><circle r="1" fill="#c1ffff" transform="rotate(-145.7 92 49)scale(10.41332 60.13688)"/><circle r="1" fill="#002500" transform="matrix(-71.16491 20.94497 -8.98826 -30.53947 43.7 168.9)"/><circle r="1" fill="#3dcbff" transform="matrix(-.50426 -30.23189 105.84397 -1.76544 135.7 9.8)"/><path fill="#002726" d="m9.6 53.2 12-32.9 50.8 18.5-12 32.9z"/><circle r="1" fill="#08819c" transform="rotate(69.2 76 164.6)scale(24.88941 63.69841)"/></g></g></svg>