<svg xmlns="http://www.w3.org/2000/svg" width="300" height="444"><g filter="blur(12px)"><rect width="200%" height="200%" x="-50%" y="-50%" fill="#69aaa9"/><rect width="100%" height="100%" fill="#69aaa9"/><g fill-opacity=".5" transform="translate(.9 .9)scale(1.73438)"><ellipse cx="122" cy="182" fill="#6e3f14" rx="172" ry="105"/><circle r="1" fill="red" transform="matrix(139.46244 0 0 8.99645 82.7 3)"/><ellipse cx="169" cy="59" fill="red" rx="10" ry="94"/><circle r="1" fill="#95ecff" transform="matrix(31.90226 -10.68113 7.87006 23.5062 40.5 141.2)"/><circle r="1" fill="red" transform="matrix(.21375 13.60642 -151.59223 2.3814 116.9 255.3)"/><circle r="1" fill="red" transform="matrix(8.43003 .01457 -.27411 158.55454 .5 129)"/><circle r="1" fill="#b4ffed" transform="rotate(35 -262.8 250.8)scale(13.45142 60.40147)"/><circle r="1" fill="#004200" transform="matrix(11.10323 20.24266 -35.14595 19.27778 41.4 198.8)"/></g></g></svg>