<svg xmlns="http://www.w3.org/2000/svg" width="299" height="462"><g filter="blur(12px)"><rect width="200%" height="200%" x="-50%" y="-50%" fill="#6584a9"/><rect width="100%" height="100%" fill="#6584a9"/><g fill-opacity=".5" transform="translate(.9 .9)scale(1.80469)"><circle r="1" fill="#3c1a00" transform="matrix(-164.85607 -6.89027 4.1264 -98.72785 93.3 187.4)"/><ellipse cx="61" cy="19" fill="#f8c660" rx="48" ry="157"/><circle r="1" fill="#400000" transform="matrix(27.36408 -18.3879 92.02794 136.95202 144.3 19.4)"/><circle r="1" transform="matrix(-17.88357 -27.6438 115.23356 -74.54793 146.5 225.1)"/><circle r="1" fill="#331c00" transform="matrix(-14.69723 5.48137 -15.47762 -41.50023 13.4 72)"/><ellipse cx="82" cy="50" fill="#fff8d3" rx="58" ry="20"/><circle r="1" fill="#cc9010" transform="rotate(-9.2 75 -241)scale(112.21155 35.70583)"/><circle r="1" transform="matrix(-58.2723 -31.3764 11.14808 -20.70423 15.5 238.5)"/></g></g></svg>