<svg xmlns="http://www.w3.org/2000/svg" width="300" height="199"><g filter="blur(12px)"><rect width="200%" height="200%" x="-50%" y="-50%" fill="#5b7592"/><rect width="100%" height="100%" fill="#5b7592"/><g fill-opacity=".5" transform="translate(.6 .6)scale(1.17188)"><circle r="1" fill="#0a0c00" transform="matrix(-14.09724 75.85713 -250.7075 -46.5913 176.7 145.3)"/><circle r="1" fill="#adffff" transform="rotate(93.2 57.6 54.5)scale(27.74045 142.51192)"/><circle r="1" fill="#b77d0a" transform="matrix(75.84888 4.45494 -1.84037 31.3338 35.4 142.5)"/><circle r="1" transform="matrix(-85.67277 31.60067 -12.32083 -33.40308 204.1 143)"/><ellipse cx="143" cy="57" fill="#0061ab" rx="255" ry="31"/><path fill="#d4c8b4" d="m143.6 135.6 38.1-46.8-47.7 6.6-44.6 40.8z"/><circle r="1" fill="#28c7ff" transform="matrix(48.00528 -30.38713 20.66748 32.65027 137.8 20)"/><circle r="1" fill="#001e37" transform="matrix(-8.9832 17.93902 -57.97056 -29.0295 75.7 70.7)"/></g></g></svg>