<svg xmlns="http://www.w3.org/2000/svg" width="299" height="421"><g filter="blur(12px)"><rect width="200%" height="200%" x="-50%" y="-50%" fill="#8ea163"/><rect width="100%" height="100%" fill="#8ea163"/><g fill-opacity=".5" transform="translate(.8 .8)scale(1.64453)"><circle r="1" transform="matrix(4.28735 73.23097 -179.85116 10.52948 73.5 202)"/><circle r="1" fill="#000020" transform="matrix(7.74738 32.5201 -71.02615 16.92082 26.5 19)"/><circle r="1" fill="#d3dde8" transform="matrix(-62.71139 62.00331 -17.65897 -17.86063 136.3 99.3)"/><circle r="1" fill="#000012" transform="matrix(-7.7996 69.93332 -179.8847 -20.06235 80.4 236.8)"/><circle r="1" fill="#1a1828" transform="rotate(-102.5 71.5 -10.4)scale(24.19395 31.88194)"/><circle cx="126" cy="12" r="28" fill="#e1e4ff"/><circle r="1" fill="#91b4e3" transform="matrix(20.64093 45.0837 -20.33561 9.31037 49 91.8)"/><circle r="1" fill="#102751" transform="matrix(21.12561 18.36421 -35.74092 41.11523 8.3 145.4)"/></g></g></svg>