<svg xmlns="http://www.w3.org/2000/svg" width="300" height="127"><g filter="blur(12px)"><rect width="200%" height="200%" x="-50%" y="-50%" fill="#8c964f"/><rect width="100%" height="100%" fill="#8c964f"/><g fill-opacity=".5" transform="translate(.6 .6)scale(1.17188)"><circle r="1" fill="#1f3908" transform="rotate(-81.6 102 -38.9)scale(50.47874 152.18016)"/><ellipse cx="203" cy="1" fill="#d7fbff" rx="218" ry="18"/><circle r="1" fill="#cfe4ff" transform="matrix(4.9353 -22.76229 170.90603 37.05565 222.6 9.3)"/><path fill="#1c3b08" d="m47.5 13 28.8-8.2L135.6 124 36.4 26.6z"/><path fill="#aca8b1" d="M14 52.7 32.2 34 48 49.3 30 68z"/><path fill="#647959" d="M147 15h45v74h-45z"/><ellipse cx="202" cy="4" fill="#c3d5f5" rx="27" ry="32"/><circle r="1" fill="#253f35" transform="matrix(7.42139 -15.0275 31.9307 15.7691 238.1 52.8)"/></g></g></svg>