<svg xmlns="http://www.w3.org/2000/svg" width="300" height="225"><g filter="blur(12px)"><rect width="200%" height="200%" x="-50%" y="-50%" fill="#998868"/><rect width="100%" height="100%" fill="#998868"/><g fill-opacity=".5" transform="translate(.6 .6)scale(1.17188)"><circle r="1" transform="matrix(-251.65905 41.1427 -11.43083 -69.91938 114.3 0)"/><circle r="1" transform="matrix(-18.15328 61.88717 -43.51955 -12.76553 235.6 153.4)"/><circle r="1" fill="#1b0000" transform="matrix(-2.77827 -26.93962 98.8337 -10.19267 71 191)"/><ellipse cx="148" cy="116" fill="#b2deff" rx="33" ry="35"/><circle r="1" fill="#622800" transform="matrix(21.30301 23.03217 -26.71133 24.70595 73.8 96.2)"/><circle r="1" transform="rotate(-71.4 23 .8)scale(30.71641 65.2294)"/><circle r="1" transform="matrix(-10.63657 52.28042 -34.71655 -7.06316 240.7 150.2)"/><ellipse cx="229" cy="8" rx="119" ry="27"/></g></g></svg>