<svg xmlns="http://www.w3.org/2000/svg" width="300" height="199"><g filter="blur(12px)"><rect width="200%" height="200%" x="-50%" y="-50%" fill="#a89463"/><rect width="100%" height="100%" fill="#a89463"/><g fill-opacity=".5" transform="translate(.6 .6)scale(1.17188)"><circle r="1" transform="matrix(252.93308 32.40148 -11.28884 88.1232 130 66.7)"/><circle r="1" transform="matrix(-10.08086 33.44262 -178.2505 -53.73141 80 101.2)"/><circle r="1" fill="#040000" transform="matrix(-54.13811 .18898 -.17415 -49.88943 220.9 29.2)"/><ellipse cx="123" cy="60" fill="#fff" rx="14" ry="18"/><circle r="1" fill="#000003" transform="matrix(-22.19947 -34.10411 85.06844 -55.37381 21.6 100.1)"/><ellipse cx="75" cy="15" fill="#c5a77c" rx="40" ry="20"/><path fill="#f3feff" d="m118 153-34-17-48 7z"/><circle r="1" fill="#ead9a4" transform="matrix(-4.12056 12.17309 -21.81831 -7.38545 148.4 30.5)"/></g></g></svg>