<svg xmlns="http://www.w3.org/2000/svg" width="300" height="200"><g filter="blur(12px)"><rect width="200%" height="200%" x="-50%" y="-50%" fill="#967756"/><rect width="100%" height="100%" fill="#967756"/><g fill-opacity=".5" transform="translate(.6 .6)scale(1.17188)"><circle r="1" fill="#ddbea4" transform="matrix(75.19703 107.14979 -79.95871 56.1145 150 104.8)"/><ellipse cx="16" cy="141" fill="#2e1623" rx="25" ry="99"/><circle r="1" fill="#f3fcff" transform="matrix(103.38876 -17.67256 2.7466 16.06823 197.3 168.7)"/><circle r="1" fill="#e1ddd4" transform="matrix(2.96365 -99.85582 18.34397 .54444 133.4 27.4)"/><circle r="1" fill="#5c3012" transform="rotate(-177 49.6 2.9)scale(14.71888 52.42117)"/><circle r="1" fill="#522e27" transform="matrix(33.49286 -43.79299 12.514 9.5707 222.5 28.5)"/><ellipse cx="75" cy="109" fill="#816050" rx="38" ry="34"/><circle r="1" fill="#5b2e19" transform="matrix(-15.4456 1.23937 -3.39606 -42.32325 37.6 21)"/></g></g></svg>