<svg xmlns="http://www.w3.org/2000/svg" width="298" height="554"><g filter="blur(12px)"><rect width="200%" height="200%" x="-50%" y="-50%" fill="#9d7659"/><rect width="100%" height="100%" fill="#9d7659"/><g fill-opacity=".5" transform="translate(1 1)scale(2.16406)"><circle r="1" fill="#dde3d8" transform="matrix(16.29491 -1.70282 12.38895 118.55476 59.5 220.2)"/><ellipse cx="45" cy="125" fill="#bcb19a" rx="117" ry="33"/><circle r="1" fill="#0f0000" transform="matrix(16.6336 5.30837 -9.1123 28.55304 10.3 192.1)"/><path d="m125.2 285.2-59.6-79 7.2-5.4 59.6 79z"/><path fill="#00000f" d="M76-4.5v29H54v-29z"/><circle r="1" fill="#0c0000" transform="matrix(15.39795 -10.91942 3.516 4.95807 32.4 100.5)"/><circle r="1" fill="#dbd5b3" transform="matrix(-11.2547 -31.93514 9.93303 -3.50064 117.4 211.6)"/><path d="m122.4 250.2 22.7-28.1-1 47.3-43.6-52.8z"/></g></g></svg>