<svg xmlns="http://www.w3.org/2000/svg" width="299" height="533"><g filter="blur(12px)"><rect width="200%" height="200%" x="-50%" y="-50%" fill="#a27e58"/><rect width="100%" height="100%" fill="#a27e58"/><g fill-opacity=".5" transform="translate(1 1)scale(2.08203)"><circle r="1" fill="#fffff5" transform="matrix(-23.6609 -13.00769 20.00591 -36.39062 58.2 154.1)"/><ellipse cx="136" cy="176" fill="#f5fffe" rx="22" ry="62"/><path fill="#fffffb" d="m-.5-6.7 71.3 37.2L159 53.9 86.7-6.3z"/><circle r="1" transform="matrix(-13.86412 -.43846 1.59087 -50.30329 100 130.8)"/><circle r="1" fill="#060000" transform="matrix(-6.66888 -16.22273 25.7084 -10.56828 40 208.5)"/><path fill="#020000" d="M25 65h21v66H25z"/><path fill="#ffffe7" d="M17.4 59.5-16 17.4l65.2 26L48 71.3z"/><path fill="#ffe5b3" d="M109 69h24v52h-24z"/></g></g></svg>