<svg xmlns="http://www.w3.org/2000/svg" width="300" height="142"><g filter="blur(12px)"><rect width="200%" height="200%" x="-50%" y="-50%" fill="#78984a"/><rect width="100%" height="100%" fill="#78984a"/><g fill-opacity=".5" transform="translate(.6 .6)scale(1.17188)"><ellipse cx="189" cy="22" fill="#e4f0ff" rx="201" ry="51"/><circle r="1" transform="matrix(106.70275 -6.88694 1.22251 18.941 198.4 121)"/><circle r="1" fill="#00191c" transform="matrix(-66.61447 -19.30112 8.60367 -29.69409 29.6 121)"/><circle r="1" fill="#f6ebfe" transform="rotate(39.3 -82.5 124.7)scale(48.54177 10.22423)"/><ellipse cx="139" cy="18" fill="#c3d3ff" rx="157" ry="37"/><circle r="1" fill="#074a5c" transform="matrix(5.08931 9.27445 -40.48144 22.21403 18.5 56.2)"/><path fill="#001b43" d="m164.3 94.8-87-1.6.4-26 87 1.6z"/><circle r="1" fill="#ffdad4" transform="rotate(125 70.4 90.9)scale(20.72681 15.11695)"/></g></g></svg>