<svg xmlns="http://www.w3.org/2000/svg" width="300" height="199"><g filter="blur(12px)"><rect width="200%" height="200%" x="-50%" y="-50%" fill="#a5b95f"/><rect width="100%" height="100%" fill="#a5b95f"/><g fill-opacity=".5" transform="translate(.6 .6)scale(1.17188)"><circle r="1" transform="matrix(66.77522 49.49145 -31.76666 42.86045 36.6 140.3)"/><circle r="1" fill="#fff" transform="matrix(-184.14952 26.53635 -9.04255 -62.75093 92.2 2.2)"/><path fill="#516937" d="m271 28-18 157-269-82z"/><circle r="1" fill="#eef5ff" transform="matrix(-5.10882 -38.80534 125.7532 -16.55572 83.7 19.8)"/><circle r="1" fill="#8490cb" transform="matrix(-130.5969 40.6764 -6.06342 -19.4674 173.9 45.3)"/><circle cx="27" cy="141" r="54" fill="#2a2b19"/><circle r="1" fill="#e8f1ff" transform="matrix(-121.11133 -.58613 .22779 -47.06777 62.9 15.2)"/><circle r="1" fill="#627a97" transform="matrix(-.16325 -10.48517 47.22992 -.73536 36.8 73.3)"/></g></g></svg>