<svg xmlns="http://www.w3.org/2000/svg" width="300" height="187"><g filter="blur(12px)"><rect width="200%" height="200%" x="-50%" y="-50%" fill="#9f6654"/><rect width="100%" height="100%" fill="#9f6654"/><g fill-opacity=".5" transform="translate(.6 .6)scale(1.17188)"><ellipse cx="56" cy="96" fill="#001d3c" rx="127" ry="97"/><circle r="1" fill="#00011e" transform="matrix(-13.5306 -10.46045 49.56715 -64.1152 163.4 110)"/><circle r="1" fill="#a28083" transform="matrix(7.61593 15.52995 -125.81978 61.70235 143 0)"/><circle r="1" fill="#000c31" transform="matrix(-10.31116 -14.97825 57.04098 -39.26752 31.9 90.5)"/><circle r="1" fill="#502d2d" transform="matrix(-32.08429 59.0919 -24.66387 -13.39139 236.8 141.1)"/><circle r="1" fill="#b3683b" transform="matrix(.50064 -19.11882 30.37946 .79551 48.5 126.8)"/><circle r="1" fill="#000019" transform="rotate(155.5 57.7 83.6)scale(17.00719 37.74631)"/><circle r="1" fill="#7c675c" transform="rotate(-10.8 311.7 -769.8)scale(58.85311 37.13318)"/></g></g></svg>