<svg xmlns="http://www.w3.org/2000/svg" width="298" height="463"><g filter="blur(12px)"><rect width="200%" height="200%" x="-50%" y="-50%" fill="#897a7f"/><rect width="100%" height="100%" fill="#897a7f"/><g fill-opacity=".5" transform="translate(.9 .9)scale(1.8086)"><circle cx="110" cy="96" r="77" fill="#122843"/><circle r="1" fill="#e5ffff" transform="rotate(-94.9 40.6 -27.6)scale(18.6711 163.99996)"/><circle r="1" fill="#3a353f" transform="rotate(6.8 -1579.4 194.4)scale(55.3926 72.56221)"/><circle r="1" fill="#1764b1" transform="matrix(-6.2355 -20.88905 126.85836 -37.8679 4.4 59.5)"/><circle r="1" fill="#e1ffff" transform="matrix(-12.4543 -19.51225 61.453 -39.22428 47.8 0)"/><path d="m147.5 222.5-41.1 24.7-11.9-19.7 41.1-24.7z"/><circle r="1" fill="#dfffff" transform="matrix(-6.5008 25.13672 -149.63965 -38.69944 152.4 3)"/><path d="m127.1 276.6-7.4-18.5 61.2-24.7 7.4 18.5z"/></g></g></svg>