<svg xmlns="http://www.w3.org/2000/svg" width="300" height="187"><g filter="blur(12px)"><rect width="200%" height="200%" x="-50%" y="-50%" fill="#9e7051"/><rect width="100%" height="100%" fill="#9e7051"/><g fill-opacity=".5" transform="translate(.6 .6)scale(1.17188)"><path fill="#000026" d="M-14 175 13 45l63-12z"/><circle r="1" fill="#00132e" transform="rotate(-55.8 151.6 9)scale(46.0395 22.69798)"/><circle r="1" fill="#00092c" transform="rotate(-27 400.3 -374)scale(23.0177 30.13745)"/><circle r="1" fill="#e8a22d" transform="matrix(54.04378 -77.66911 17.98522 12.51449 119.8 112.4)"/><circle r="1" fill="#ffa73b" transform="matrix(-60.16538 -137.06055 19.56772 -8.58963 231.9 15.8)"/><ellipse cx="18" cy="7" fill="#000038" rx="71" ry="6"/><circle r="1" fill="#183144" transform="matrix(8.46349 6.03695 -25.52683 35.7873 109.8 69)"/><circle r="1" fill="#002950" transform="matrix(8.2525 13.03378 -10.02793 6.34932 227.6 74.3)"/></g></g></svg>