<svg xmlns="http://www.w3.org/2000/svg" width="300" height="94"><g filter="blur(12px)"><rect width="200%" height="200%" x="-50%" y="-50%" fill="#ad7c5b"/><rect width="100%" height="100%" fill="#ad7c5b"/><g fill-opacity=".5" transform="translate(.6 .6)scale(1.17188)"><circle r="1" fill="#00212d" transform="matrix(-18.26893 5.39691 -31.17379 -105.5255 255 30.8)"/><path fill="#5d5345" d="M84.3 59.2.3 91.5l-28.6-74.7 84-32.3z"/><circle r="1" fill="#f2bc9a" transform="matrix(-16.24848 -3.32599 3.29761 -16.10986 87.7 18.2)"/><ellipse cx="177" cy="9" fill="#57443e" rx="21" ry="15"/><circle r="1" fill="#75715b" transform="rotate(-4 1058.5 -3307.8)scale(19.58051 40.70263)"/><path fill="#d3a487" d="m117 48 28-48 3 62z"/><path fill="#614242" d="M151 43h19v30h-19z"/><path fill="#423530" d="m28.6-15.3 28.3-6.5 8.5 37-28.3 6.6z"/></g></g></svg>