<svg xmlns="http://www.w3.org/2000/svg" width="300" height="199"><g filter="blur(12px)"><rect width="200%" height="200%" x="-50%" y="-50%" fill="#797fa6"/><rect width="100%" height="100%" fill="#797fa6"/><g fill-opacity=".5" transform="translate(.6 .6)scale(1.17188)"><circle r="1" fill="#000900" transform="matrix(34.40056 -1.08108 7.9169 251.92008 28.5 86.7)"/><circle r="1" fill="#005c00" transform="matrix(-41.85545 -4.09983 24.85881 -253.78542 231.6 103.2)"/><ellipse cx="82" cy="160" fill="#004e00" rx="178" ry="32"/><circle r="1" fill="#fff" transform="matrix(18.48385 -24.58702 47.50943 35.7163 159.7 64.6)"/><circle r="1" fill="#fff" transform="matrix(18.6707 -47.39832 27.73542 10.92527 84.7 74.4)"/><ellipse cx="107" cy="12" fill="#002800" rx="254" ry="15"/><circle r="1" fill="#fff" transform="matrix(-1.44087 11.09995 -49.77728 -6.4615 136.2 121)"/><circle r="1" fill="#000a00" transform="rotate(29.8 -129.7 81.6)scale(27.66338 78.81121)"/></g></g></svg>