<svg xmlns="http://www.w3.org/2000/svg" width="300" height="199"><g filter="blur(12px)"><rect width="200%" height="200%" x="-50%" y="-50%" fill="#6a9957"/><rect width="100%" height="100%" fill="#6a9957"/><g fill-opacity=".5" transform="translate(.6 .6)scale(1.17188)"><circle cx="196" cy="102" r="52" fill="#eac27f"/><circle r="1" fill="#f5c895" transform="matrix(40.72919 -40.43416 19.26952 19.41012 79.7 100.4)"/><circle r="1" fill="#1a2414" transform="matrix(2.29155 -23.49216 81.38279 7.9385 112.5 169)"/><circle r="1" fill="#744776" transform="matrix(-49.58799 -34.33635 108.32747 -156.44473 18.7 67)"/><ellipse cx="196" cy="24" fill="#733766" rx="68" ry="29"/><circle r="1" fill="#42304b" transform="matrix(-12.26335 -18.52374 32.88952 -21.774 232.2 148.5)"/><path fill="#0f5904" d="m125.3 106.6 39.2-12 8.2 26.8-39.2 12z"/><circle r="1" transform="matrix(5.3797 -7.94578 13.57015 9.18768 36.8 36.4)"/></g></g></svg>