<svg xmlns="http://www.w3.org/2000/svg" width="300" height="199"><g filter="blur(12px)"><rect width="200%" height="200%" x="-50%" y="-50%" fill="#92634c"/><rect width="100%" height="100%" fill="#92634c"/><g fill-opacity=".5" transform="translate(.6 .6)scale(1.17188)"><circle r="1" fill="#d8d3dd" transform="matrix(-51.77404 -86.03438 42.09394 -25.33142 152 46.1)"/><circle r="1" fill="#903600" transform="matrix(-83.35786 12.89746 -9.28678 -60.0216 69.4 144)"/><path fill="#eac5a1" d="m255 172-70-34-69 35z"/><ellipse cx="155" cy="3" fill="#816876" rx="255" ry="28"/><circle r="1" fill="#d8ced0" transform="matrix(-15.6639 -16.06123 29.23302 -28.50984 187.8 81.5)"/><ellipse cx="240" cy="141" fill="#933800" rx="37" ry="19"/><circle r="1" fill="#dacdcc" transform="rotate(1.2 -2361.1 6907)scale(53.13722 17.08116)"/><path fill="#421f0c" d="m134.7 67.8 17.6 11.5-7 10.9-17.6-11.5z"/></g></g></svg>