<svg xmlns="http://www.w3.org/2000/svg" width="300" height="420"><g filter="blur(12px)"><rect width="200%" height="200%" x="-50%" y="-50%" fill="#78ba70"/><rect width="100%" height="100%" fill="#78ba70"/><g fill-opacity=".5" transform="translate(.8 .8)scale(1.64063)"><circle r="1" fill="#fff" transform="matrix(34.9446 178.61376 -47.65624 9.32363 159.6 110.5)"/><circle r="1" fill="#fff" transform="matrix(-40.32183 -177.47718 44.53878 -10.11896 19.6 158)"/><circle r="1" fill="#600" transform="rotate(72.6 -56.4 142.6)scale(62.36866 50.91232)"/><circle r="1" fill="#fffeff" transform="rotate(-159 55.9 113)scale(174.31846 39.67152)"/><path fill="#fff" d="m79 31 108 174-5-221z"/><circle r="1" fill="#a82c00" transform="matrix(21.8844 -14.0168 45.64704 71.26858 61 43.6)"/><circle cx="16" cy="93" r="47" fill="#fff"/><circle r="1" fill="#1c0000" transform="matrix(-16.3336 -4.59117 5.4558 -19.40963 119.9 224.1)"/></g></g></svg>