<svg xmlns="http://www.w3.org/2000/svg" width="300" height="187"><g filter="blur(12px)"><rect width="200%" height="200%" x="-50%" y="-50%" fill="#b27c69"/><rect width="100%" height="100%" fill="#b27c69"/><g fill-opacity=".5" transform="translate(.6 .6)scale(1.17188)"><circle cx="141" cy="70" r="179" fill="#001d32"/><path d="M271-1 146-3l124 42z"/><circle r="1" transform="matrix(15.75103 11.59054 -43.25804 58.78574 15.1 14)"/><path d="m-64.6 132.9 8.8-25.5L94.6 159l-8.8 25.5z"/><path fill="#989089" d="M75 115h173v37H75z"/><ellipse cx="121" cy="3" rx="255" ry="9"/><path fill="#cac3ad" d="m55.4 111.3-7.7 31.1-31.1-7.7 7.7-31.1z"/><path d="m81.5 153 169.1 22 14.8-46.2-47.2 26.7z"/></g></g></svg>