<svg xmlns="http://www.w3.org/2000/svg" width="300" height="225"><g filter="blur(12px)"><rect width="200%" height="200%" x="-50%" y="-50%" fill="#5b5f9d"/><rect width="100%" height="100%" fill="#5b5f9d"/><g fill-opacity=".5" transform="translate(.6 .6)scale(1.17188)"><ellipse cx="188" cy="92" fill="#011900" rx="255" ry="151"/><ellipse cx="230" cy="113" fill="#0f0a00" rx="59" ry="70"/><circle r="1" fill="#fae4e5" transform="rotate(178.8 13.9 48.5)scale(19.02278 13.06976)"/><circle r="1" fill="#f4e1de" transform="matrix(4.15717 -9.29347 17.71836 7.9258 88.3 178.7)"/><circle r="1" fill="#0d1300" transform="matrix(-7.24605 25.77865 -62.40318 -17.54074 143.5 166.7)"/><path fill="#f8e3e0" d="m147.3 112.4 19.7 15.4-12.3 15.8-19.7-15.4z"/><circle r="1" fill="#0a1f00" transform="matrix(15.60279 18.72705 -74.61029 62.16295 26.2 141.8)"/><circle r="1" fill="#e5dccb" transform="rotate(-120.6 53 -11.4)scale(11.12037 15.99818)"/></g></g></svg>