<svg xmlns="http://www.w3.org/2000/svg" width="300" height="167"><g filter="blur(12px)"><rect width="200%" height="200%" x="-50%" y="-50%" fill="#8c9750"/><rect width="100%" height="100%" fill="#8c9750"/><g fill-opacity=".5" transform="translate(.6 .6)scale(1.17188)"><circle r="1" fill="#c53800" transform="matrix(-5.30419 89.896 -254.55727 -15.0198 141.4 110.4)"/><circle r="1" fill="#251418" transform="matrix(3.67792 -32.2924 143.68508 16.36493 72.5 130.4)"/><path fill="#ffb243" d="m8-44 254 22.3-8 91.6L0 47.7z"/><path fill="#00180c" d="m136.3 64.2-101.7 39-3-7.4 101.8-39z"/><ellipse cx="195" cy="77" fill="#e37819" rx="67" ry="28"/><path fill="#1f2829" d="m70 111-72 47 156-30z"/><path fill="#5e6638" d="m181.5 41.3 58.9-39.7 6.1 9.1-58.9 39.7z"/><circle r="1" fill="#9a4413" transform="matrix(-2.79451 14.76314 -147.884 -27.99296 196.4 124.4)"/></g></g></svg>