<svg xmlns="http://www.w3.org/2000/svg" width="300" height="225"><g filter="blur(12px)"><rect width="200%" height="200%" x="-50%" y="-50%" fill="#a38252"/><rect width="100%" height="100%" fill="#a38252"/><g fill-opacity=".5" transform="translate(.6 .6)scale(1.17188)"><path fill="#54ffff" d="m-3.4-33.3 254.6-13.3 4.2 79.9L.8 46.6z"/><circle r="1" fill="#032818" transform="rotate(-74.3 133 -66.7)scale(22.21755 51.5969)"/><ellipse cx="83" cy="11" fill="#79cfff" rx="255" ry="25"/><circle r="1" fill="#f2cd5c" transform="matrix(-66.93788 23.921 -11.33251 -31.71165 28.5 138.4)"/><circle r="1" fill="#e8bd55" transform="rotate(119.2 47 129.5)scale(31.82749 62.74038)"/><ellipse cx="85" cy="82" fill="#000b1c" rx="24" ry="9"/><path fill="#5f461b" d="m75.1 141.5 39.6-10.6 18.2 67.6-39.6 10.6z"/><path fill="#7ccdff" d="m5-16-21 70 272-44z"/></g></g></svg>