<svg xmlns="http://www.w3.org/2000/svg" width="300" height="189"><g filter="blur(12px)"><rect width="200%" height="200%" x="-50%" y="-50%" fill="#525f94"/><rect width="100%" height="100%" fill="#525f94"/><circle r="1" fill="#c1ffff" fill-opacity=".5" transform="matrix(-1.54064 -51.90961 165.78314 -4.92033 154.9 23)"/><circle r="1" fill="#341d00" fill-opacity=".5" transform="rotate(-95.9 148.8 26.7)scale(83.31604 184.86958)"/><circle r="1" fill="#f8ffff" fill-opacity=".5" transform="matrix(-13.5806 -21.7432 83.34066 -52.05381 248 16.9)"/><circle r="1" fill-opacity=".5" transform="matrix(52.34526 23.6348 -16.84184 37.30055 75.3 178.9)"/><circle r="1" fill="#e1ffff" fill-opacity=".5" transform="matrix(-7.38823 24.39205 -17.1721 -5.20134 59.3 73)"/><circle r="1" fill="#004fb6" fill-opacity=".5" transform="matrix(20.13162 -33.32889 22.57484 13.63586 19 60.7)"/><path fill="#fff" fill-opacity=".5" d="M-13.5 24-1.8-7.6 115.4 24z"/><circle r="1" fill="#003598" fill-opacity=".5" transform="matrix(-15.99344 -16.79477 21.6614 -20.62787 244.8 63.5)"/></g></svg>