<svg xmlns="http://www.w3.org/2000/svg" width="300" height="199"><g filter="blur(12px)"><rect width="200%" height="200%" x="-50%" y="-50%" fill="#ab7c61"/><rect width="100%" height="100%" fill="#ab7c61"/><circle r="1" fill="#fff" fill-opacity=".5" transform="matrix(-60.90891 38.87984 -13.75218 -21.54407 276.1 79.7)"/><circle r="1" fill="#180f14" fill-opacity=".5" transform="rotate(-114.6 125.2 -50.8)scale(32.02898 97.95112)"/><circle r="1" fill="#001330" fill-opacity=".5" transform="rotate(-125.7 176.5 14.9)scale(46.21905 71.14178)"/><circle r="1" fill="#544642" fill-opacity=".5" transform="matrix(44.31315 -77.37512 112.69449 64.54074 118.8 20)"/><path fill="#170914" fill-opacity=".5" d="M-54.4 209.4-45 161l138 26.8-9.3 48.3z"/><circle r="1" fill="#fbffff" fill-opacity=".5" transform="matrix(64.0538 -40.99734 12.40693 19.38445 262.6 88.2)"/><circle r="1" fill-opacity=".5" transform="rotate(-150.7 145 -31.9)scale(16.93036 50.12503)"/><circle r="1" fill="#181020" fill-opacity=".5" transform="matrix(-226.5925 36.69998 -3.33572 -20.59535 10.5 3.8)"/></g></svg>