<svg xmlns="http://www.w3.org/2000/svg" width="300" height="239"><g filter="blur(12px)"><rect width="200%" height="200%" x="-50%" y="-50%" fill="#95559e"/><rect width="100%" height="100%" fill="#95559e"/><g fill-opacity=".5" transform="translate(.6 .6)scale(1.17188)"><circle cx="156" cy="97" r="208" fill="#001900"/><circle r="1" fill="#32f4f9" transform="matrix(63.38024 3.60805 -1.89754 33.33279 218 108.1)"/><circle r="1" transform="matrix(.39687 75.79676 -250.95083 1.31399 148.1 .1)"/><circle r="1" fill="#8fe38f" transform="matrix(11.81637 29.89011 -62.7383 24.80214 36.4 103.7)"/><circle r="1" fill="#000500" transform="matrix(-.9463 41.6995 -175.7385 -3.98806 104.5 183.8)"/><path fill="#ae9e46" d="M94 86h90v35H94z"/><circle r="1" transform="matrix(205.2289 15.31588 -3.37664 45.2461 123.4 24.8)"/><path d="m189-16-45 127L24-16z"/></g></g></svg>