<svg xmlns="http://www.w3.org/2000/svg" width="300" height="198"><g filter="blur(12px)"><rect width="200%" height="200%" x="-50%" y="-50%" fill="#a57c67"/><rect width="100%" height="100%" fill="#a57c67"/><g fill-opacity=".5" transform="translate(.6 .6)scale(1.17188)"><circle r="1" fill="#39112b" transform="matrix(-13.48505 -59.83787 235.24534 -53.01483 99 127)"/><circle r="1" fill="#fff" transform="matrix(7.42554 -13.23215 43.19003 24.23712 241.2 9.1)"/><circle r="1" fill="#80c5fb" transform="matrix(3.28635 16.36666 -114.1196 22.9147 62.2 27.8)"/><circle r="1" fill="#9fc2c6" transform="matrix(22.808 -4.97295 8.3328 38.21767 122.6 67)"/><path fill="#1e58a0" d="m61 5 140-19 13 54z"/><path fill="#fffedd" d="M0 20h56v28H0z"/><circle r="1" fill="#f0e3d5" transform="matrix(-6.58264 .82524 -5.81097 -46.3517 223 79.1)"/><ellipse cx="201" cy="146" fill="#22112e" rx="44" ry="33"/></g></g></svg>