<svg xmlns="http://www.w3.org/2000/svg" width="300" height="199"><g filter="blur(12px)"><rect width="200%" height="200%" x="-50%" y="-50%" fill="#b6b174"/><rect width="100%" height="100%" fill="#b6b174"/><g fill-opacity=".5" transform="translate(.6 .6)scale(1.17188)"><circle r="1" fill="#000b21" transform="matrix(-254.98097 -3.11534 .94287 -77.17148 129.1 108)"/><ellipse cx="145" cy="16" fill="#6ecdff" rx="80" ry="30"/><circle r="1" fill="#031f09" transform="matrix(38.83362 -23.8949 58.40926 94.9258 11.8 36.2)"/><circle r="1" fill="#003416" transform="matrix(79.28473 -76.56437 30.52283 31.60732 240.4 62.1)"/><ellipse cx="129" cy="107" fill="#0076a9" rx="59" ry="34"/><circle r="1" fill="#d5b796" transform="matrix(-.59982 23.86593 -94.64626 -2.37873 84.8 169)"/><path fill="#c6ddff" d="M167.7 11.1 160 50.4 90.3 37 98-2.4z"/><circle r="1" fill="#1583f1" transform="matrix(3.83125 18.33318 -59.61075 12.4574 188.5 1.4)"/></g></g></svg>