<svg xmlns="http://www.w3.org/2000/svg" width="300" height="199"><g filter="blur(12px)"><rect width="200%" height="200%" x="-50%" y="-50%" fill="#828283"/><rect width="100%" height="100%" fill="#828283"/><g fill-opacity=".5" transform="translate(.6 .6)scale(1.17188)"><circle r="1" fill="#fff" transform="matrix(104.93616 232.40784 -63.0607 28.473 208.6 55.5)"/><circle cy="78" r="97" fill="#fff"/><circle r="1" fill="#1c191c" transform="matrix(-77.58926 -27.6283 16.23323 -45.5882 115.5 94.4)"/><circle r="1" fill="#fff" transform="matrix(25.4144 -46.47186 209.1074 114.35609 204.6 32.1)"/><circle r="1" fill="#fff" transform="matrix(-254.10678 9.63934 -.83892 -22.11514 129.9 155.7)"/><circle r="1" fill="#fff" transform="matrix(-28.69777 3.47281 -23.31131 -192.6343 10.5 64.4)"/><circle r="1" fill="#413d34" transform="matrix(-46.60042 -1.30167 .53057 -18.99453 117.4 143)"/><circle r="1" fill="#fff" transform="matrix(82.87685 241.15644 -40.90876 14.05888 207.2 0)"/></g></g></svg>