<svg xmlns="http://www.w3.org/2000/svg" width="300" height="390"><g filter="blur(12px)"><rect width="200%" height="200%" x="-50%" y="-50%" fill="#456793"/><rect width="100%" height="100%" fill="#456793"/><g fill-opacity=".5" transform="translate(.8 .8)scale(1.52344)"><circle r="1" fill="#fffff7" transform="matrix(-159.76538 -44.37925 49.4957 -178.18459 93.1 136.2)"/><circle r="1" fill="#ac4e00" transform="matrix(-46.43021 -.56728 .92584 -75.77702 92.5 111.2)"/><circle r="1" fill="#fff" transform="matrix(2.67752 52.86022 -195.74904 9.91524 94.5 235.1)"/><circle r="1" fill="#fff" transform="rotate(168.4 80.8 43.2)scale(44.94626 195.99999)"/><circle r="1" fill="#fff" transform="matrix(37.65022 7.11408 -36.39066 192.5921 30.7 64.3)"/><ellipse cx="114" cy="12" fill="#fff" rx="129" ry="26"/><path fill="#701700" d="M134 128h13v73h-13z"/><circle r="1" fill="#603300" transform="rotate(-169.5 40 66.5)scale(8.66805 99.21581)"/></g></g></svg>