<svg xmlns="http://www.w3.org/2000/svg" width="300" height="300"><g filter="blur(12px)"><rect width="200%" height="200%" x="-50%" y="-50%" fill="#90664b"/><rect width="100%" height="100%" fill="#90664b"/><g fill-opacity=".5" transform="translate(.6 .6)scale(1.17188)"><circle r="1" fill="#170000" transform="rotate(79.7 44 180.6)scale(82.30058 18.83892)"/><circle r="1" fill="#ffd44b" transform="matrix(-12.65962 -72.47094 31.9636 -5.58358 17.6 37.8)"/><circle r="1" fill="#fff34e" transform="matrix(-22.35747 -3.09914 6.18777 -44.63918 110.7 38.4)"/><circle r="1" fill="#ffd12d" transform="matrix(31.86395 -7.00057 9.46707 43.0905 240.5 22.3)"/><circle r="1" transform="matrix(-11.70525 -43.7764 15.52012 -4.14988 82 88.4)"/><ellipse cx="96" cy="226" fill="#d39158" rx="162" ry="35"/><circle r="1" fill="#322717" transform="matrix(-1.8739 20.46252 -62.76404 -5.74778 191.8 156.8)"/><circle r="1" fill="#130000" transform="matrix(13.12988 -5.5047 10.89088 25.97708 70.6 6.1)"/></g></g></svg>