<svg xmlns="http://www.w3.org/2000/svg" width="300" height="244"><g filter="blur(12px)"><rect width="200%" height="200%" x="-50%" y="-50%" fill="#b57f5b"/><rect width="100%" height="100%" fill="#b57f5b"/><g fill-opacity=".5" transform="translate(.6 .6)scale(1.17188)"><circle r="1" fill="#002648" transform="matrix(-254.57136 -14.77916 5.32963 -91.80303 104.1 141.8)"/><circle r="1" fill="#00001a" transform="matrix(-91.26694 7.64708 -4.00405 -47.78777 42.9 162.3)"/><circle cx="128" cy="72" r="59" fill="#b8a275"/><circle r="1" fill="#d1c1a2" transform="matrix(10.00857 5.37862 -37.53884 69.85247 187.7 160.4)"/><circle r="1" fill="#5b8195" transform="rotate(149.4 113.7 48)scale(34.37478 135.21825)"/><circle r="1" fill="#768185" transform="matrix(-86.69393 38.39281 -31.46273 -71.04527 23.9 23.3)"/><circle r="1" fill="#8e8d9c" transform="matrix(-3.18302 12.00688 -48.93022 -12.97139 112.2 200)"/><path fill="#d8c6a9" d="M113.9-.3-16.8 47.3l-17-47L96.7-47.3z"/></g></g></svg>