<svg xmlns="http://www.w3.org/2000/svg" width="300" height="223"><g filter="blur(12px)"><rect width="200%" height="200%" x="-50%" y="-50%" fill="#9ea056"/><rect width="100%" height="100%" fill="#9ea056"/><g fill-opacity=".5" transform="translate(.6 .6)scale(1.17188)"><circle r="1" fill="#22861e" transform="matrix(3.06534 -98.27952 160.62557 5.0099 115.6 118.6)"/><circle r="1" fill="#a9ffff" transform="matrix(.51709 12.1333 -210.65033 8.97736 127.6 4.7)"/><path fill="#fdc798" d="m136.7 93.6 7.3-8.2 103.3 93-7.3 8.2z"/><circle r="1" fill="#b6e2ff" transform="matrix(145.22587 -4.5639 .32133 10.2248 114.8 5.4)"/><circle r="1" fill="#004312" transform="matrix(10.47841 -6.25073 25.9245 43.4585 129.7 161.1)"/><circle r="1" fill="#6dbe47" transform="rotate(12 -132.1 1088.7)scale(101.18455 35.859)"/><circle r="1" fill="#2a5e1d" transform="matrix(-81.97824 -101.2347 9.6808 -7.83935 199.3 179.7)"/><ellipse cx="51" cy="38" fill="#6bb443" rx="255" ry="21"/></g></g></svg>