<svg xmlns="http://www.w3.org/2000/svg" width="300" height="198"><g filter="blur(12px)"><rect width="200%" height="200%" x="-50%" y="-50%" fill="#957d71"/><rect width="100%" height="100%" fill="#957d71"/><g fill-opacity=".5" transform="translate(.6 .6)scale(1.17188)"><path fill="#500000" d="M201.3 167.2 71.1 258.4l-96.4-137.6 130.2-91.2z"/><circle r="1" fill="#000130" transform="matrix(9.05832 -159.78401 27.26626 1.54575 251.3 106.3)"/><ellipse cx="24" cy="145" fill="#000008" rx="36" ry="31"/><circle r="1" transform="rotate(-120.7 113.2 -34)scale(15.24533 33.59404)"/><ellipse cx="29" cy="28" fill="#2b251b" rx="72" ry="23"/><path fill="#00000e" d="m151.7 201.8-9.7-50 90.3-17.6 9.7 50z"/><circle r="1" fill="#d30110" transform="rotate(12.9 -634 459.1)scale(27.90035 102.28267)"/><circle r="1" fill="#edffff" transform="rotate(-42.9 66.3 -150.6)scale(16.17246 36.57803)"/></g></g></svg>