<svg xmlns="http://www.w3.org/2000/svg" width="300" height="210"><g filter="blur(12px)"><rect width="200%" height="200%" x="-50%" y="-50%" fill="#9b925d"/><rect width="100%" height="100%" fill="#9b925d"/><g fill-opacity=".5" transform="translate(.6 .6)scale(1.17188)"><ellipse cx="212" rx="169" ry="105"/><circle r="1" transform="matrix(-6.5963 38.6455 -241.39409 -41.20297 200.2 32.7)"/><path d="m104.8 149-62.6 54.4-23-26.4 62.6-54.4z"/><circle r="1" fill="#4f1d2f" transform="matrix(-11.71077 -45.94907 87.19396 -22.22262 196.5 153.9)"/><circle r="1" fill="#f49489" transform="matrix(21.80282 16.62235 -16.18885 21.23422 40.6 51)"/><path fill="#ccd0dc" d="m111.7 103.7 42-27.3 20.6 32-42 27.2z"/><ellipse cx="71" cy="8" fill="#000001" rx="255" ry="18"/><path fill="#ffb5a3" d="M57 47h33v68H57z"/></g></g></svg>