<svg xmlns="http://www.w3.org/2000/svg" width="300" height="384"><g filter="blur(12px)"><rect width="200%" height="200%" x="-50%" y="-50%" fill="#978570"/><rect width="100%" height="100%" fill="#978570"/><g fill-opacity=".5" transform="matrix(1.5 0 0 1.5 .8 .8)"><circle r="1" fill="#fff" transform="matrix(-.25854 39.90238 -198.99582 -1.28936 83 29.1)"/><circle r="1" fill="#fff" transform="matrix(-197.9361 -17.62429 2.19911 -24.69792 77.2 253.3)"/><circle r="1" fill="#fff" transform="matrix(34.30808 -196.0203 30.35739 5.31324 0 130.3)"/><path fill="#33313b" d="m114 1 18 250 60-126z"/><ellipse cx="194" cy="154" fill="#fff" rx="10" ry="255"/><circle r="1" fill="#fff" transform="matrix(-13.86495 -34.59102 173.46716 -69.53 78.3 13.4)"/><path fill="#393438" d="M93 164h88v74H93z"/><circle cx="184" cy="31" r="40" fill="#fff"/></g></g></svg>