<svg xmlns="http://www.w3.org/2000/svg" width="300" height="165"><g filter="blur(12px)"><rect width="200%" height="200%" x="-50%" y="-50%" fill="#a76c68"/><rect width="100%" height="100%" fill="#a76c68"/><circle r="1" fill="#0e3031" fill-opacity=".5" transform="matrix(-296.84773 -34.34645 13.91215 -120.23922 172.4 155.3)"/><circle r="1" fill="#6bf2ff" fill-opacity=".5" transform="matrix(1.73206 39.6706 -197.79098 8.63574 131.3 6.4)"/><circle r="1" fill="#fffbab" fill-opacity=".5" transform="matrix(133.95114 -11.65385 1.46421 16.82987 276.6 13.2)"/><circle r="1" fill="#00a5ff" fill-opacity=".5" transform="matrix(142.48052 -14.22145 1.76145 17.64744 84 .6)"/><circle r="1" fill="#000f00" fill-opacity=".5" transform="matrix(-3.2416 21.95205 -135.64006 -20.02958 238.5 159.5)"/><path fill="#d17d12" fill-opacity=".5" d="m15.3 106.8 95.5 23.8-5.4 21.6L10 128.4z"/><circle r="1" fill="#00359a" fill-opacity=".5" transform="rotate(-89.7 50.3 -14.2)scale(5.12432 188.61295)"/><circle r="1" fill="#ffeb00" fill-opacity=".5" transform="matrix(-70.98534 -.88917 .06728 -5.37127 254.3 29)"/></g></svg>