<svg xmlns="http://www.w3.org/2000/svg" width="299" height="399"><g filter="blur(12px)"><rect width="200%" height="200%" x="-50%" y="-50%" fill="#7d765c"/><rect width="100%" height="100%" fill="#7d765c"/><g fill-opacity=".5" transform="translate(.8 .8)scale(1.5586)"><circle r="1" fill="#fffc69" transform="matrix(-23.9386 55.81924 -145.22911 -62.28286 107.7 8.2)"/><circle r="1" fill="#293e00" transform="rotate(26.8 -454.5 231.8)scale(118.05422 29.27827)"/><circle r="1" fill="#ffece9" transform="matrix(-.9945 -21.9006 161.4674 -7.3322 93.2 0)"/><circle r="1" fill="#40450c" transform="rotate(19.6 -541.7 573)scale(33.41514 94.6109)"/><ellipse cx="86" cy="53" fill="#809300" rx="189" ry="14"/><circle r="1" fill="#3f6105" transform="rotate(-130.2 40.6 59.9)scale(22.64474 72.85215)"/><circle r="1" fill="#f4db00" transform="rotate(-97.3 103.3 -56.5)scale(20.30308 51.62406)"/><circle r="1" fill="#ffcea4" transform="matrix(-3.9171 -4.88095 38.93996 -31.25047 71 127.6)"/></g></g></svg>