<svg xmlns="http://www.w3.org/2000/svg" width="300" height="199"><g filter="blur(12px)"><rect width="200%" height="200%" x="-50%" y="-50%" fill="#897464"/><rect width="100%" height="100%" fill="#897464"/><g fill-opacity=".5" transform="translate(.6 .6)scale(1.17188)"><circle r="1" transform="matrix(-201.32198 156.50706 -38.3918 -49.38507 68.7 24.8)"/><circle r="1" fill="#120a0e" transform="matrix(-29.0967 -13.46243 42.05627 -90.89733 234 138.7)"/><ellipse cx="37" cy="155" fill="#011127" rx="58" ry="41"/><circle r="1" fill="#2a1c10" transform="matrix(20.72616 24.22443 -45.30042 38.75855 214 31.5)"/><circle r="1" transform="rotate(58.8 3.5 40.6)scale(36.06525 100.43582)"/><circle r="1" fill="#ffffcd" transform="rotate(-121.3 116.8 20)scale(9.7452 78.00498)"/><path fill="#ffffd1" d="m97.1 56.4 1.3 4.9-81.5 20.3-1.3-4.9z"/><path fill="#f6d5b0" d="M51 92v26l88-35z"/></g></g></svg>