<svg xmlns="http://www.w3.org/2000/svg" width="299" height="451"><g filter="blur(12px)"><rect width="200%" height="200%" x="-50%" y="-50%" fill="#6991ae"/><rect width="100%" height="100%" fill="#6991ae"/><g fill-opacity=".5" transform="translate(.9 .9)scale(1.76172)"><circle r="1" fill="#903c00" transform="matrix(90.50007 9.9913 -16.52056 149.64137 90.5 201.2)"/><path fill="#fff" d="m16 179.8-60.8-16.3L-2 4.2l60.9 16.3z"/><circle r="1" fill="#fff" transform="matrix(-25.36644 -67.06526 18.24076 -6.8993 120.2 30)"/><ellipse cx="140" cy="109" fill="#fea539" rx="66" ry="40"/><circle r="1" fill="#0d2d68" transform="rotate(-55.7 255 -34)scale(41.91572 56.60761)"/><path fill="#fffffb" d="m47 9-63 68 183-87z"/><ellipse cx="169" cy="26" fill="#5d4d00" rx="27" ry="61"/><circle r="1" fill="#532308" transform="matrix(-168.52815 -10.27073 1.39428 -22.87811 43.6 236.7)"/></g></g></svg>