<svg xmlns="http://www.w3.org/2000/svg" width="300" height="199"><g filter="blur(12px)"><rect width="200%" height="200%" x="-50%" y="-50%" fill="#659997"/><rect width="100%" height="100%" fill="#659997"/><circle r="1" fill="#ffe602" fill-opacity=".5" transform="rotate(105.6 3.8 38.7)scale(76.94444 55.67815)"/><circle r="1" fill="#b97b00" fill-opacity=".5" transform="matrix(38.18056 118.2093 -73.09362 23.6086 224.8 124)"/><circle r="1" fill="#0c1615" fill-opacity=".5" transform="rotate(124.1 117.3 106.7)scale(184.02537 20.85054)"/><circle r="1" fill="#e7dabf" fill-opacity=".5" transform="rotate(-175.5 69.2 88.5)scale(35.36562 88.77472)"/><circle r="1" fill="#632b00" fill-opacity=".5" transform="rotate(95.6 -32.8 118.5)scale(81.35586 17.09298)"/><circle r="1" fill="#004a58" fill-opacity=".5" transform="matrix(-.21894 -58.06523 25.29397 -.09537 121.1 44.2)"/><path fill="#ffcf2a" fill-opacity=".5" d="m163.7 115.7-29.9 16.5L15.4 73.7l-30.6-39z"/><circle r="1" fill="#f2e16d" fill-opacity=".5" transform="matrix(-26.4925 5.95422 -18.54327 -82.50584 188.8 23.8)"/></g></svg>