<svg xmlns="http://www.w3.org/2000/svg" width="300" height="225"><g filter="blur(12px)"><rect width="200%" height="200%" x="-50%" y="-50%" fill="#916f6e"/><rect width="100%" height="100%" fill="#916f6e"/><g fill-opacity=".5" transform="translate(.6 .6)scale(1.17188)"><circle r="1" fill="#22786b" transform="matrix(219.44334 5.52323 -2.33959 92.95404 124 135)"/><circle r="1" fill="#82b8d8" transform="matrix(-238.15195 -17.85024 3.55113 -47.37797 134.6 27.2)"/><circle r="1" fill="#6a5636" transform="matrix(158.89924 -1.0913 .38609 56.21664 99.8 185)"/><circle r="1" fill="#008b78" transform="matrix(-1.81917 -8.86233 142.76828 -29.30612 146.9 104.4)"/><path fill="#007143" d="M263.5 156.8 148.7 192l-8.2-26.7L255.3 130z"/><circle r="1" fill="#0099a1" transform="matrix(1.04148 6.2911 -160.7616 26.61391 139.3 66.4)"/><ellipse cx="159" cy="135" fill="#a76c6c" rx="44" ry="20"/><circle r="1" fill="#a7797a" transform="matrix(3.19313 20.48021 -33.50403 5.22371 239.4 114.8)"/></g></g></svg>