<svg xmlns="http://www.w3.org/2000/svg" width="300" height="300"><g filter="blur(12px)"><rect width="200%" height="200%" x="-50%" y="-50%" fill="#67969c"/><rect width="100%" height="100%" fill="#67969c"/><circle r="1" fill="#29d0e7" fill-opacity=".5" transform="rotate(-77.9 145.9 -3.5)scale(210.80446 261.81969)"/><circle r="1" fill="#b1cdda" fill-opacity=".5" transform="matrix(-85.39214 -10.28413 13.73038 -114.0074 141.8 141.3)"/><circle r="1" fill="#00a2af" fill-opacity=".5" transform="matrix(20.2909 298.13844 -51.4926 3.50452 261.8 119.3)"/><circle r="1" fill="#0092a1" fill-opacity=".5" transform="rotate(-4.8 206.1 -895.4)scale(89.75849 28.8734)"/><circle r="1" fill="#00a2b3" fill-opacity=".5" transform="matrix(-36.83353 5.7723 -22.33218 -142.50334 21.8 270.8)"/><path fill="#8b5850" fill-opacity=".5" d="m147 209.2 2.4 28.1 91.4-35.2z"/><circle r="1" fill="#5ec2d2" fill-opacity=".5" transform="matrix(31.225 -12.36285 28.91995 73.04346 230.4 141.3)"/><circle r="1" fill="#0091a2" fill-opacity=".5" transform="matrix(-10.92896 39.94954 -91.7707 -25.10562 264.8 11.5)"/></g></svg>