<svg xmlns="http://www.w3.org/2000/svg" width="300" height="223"><g filter="blur(12px)"><rect width="200%" height="200%" x="-50%" y="-50%" fill="#6a9a8b"/><rect width="100%" height="100%" fill="#6a9a8b"/><g fill-opacity=".5" transform="translate(.6 .6)scale(1.17188)"><circle r="1" fill="#a4827b" transform="matrix(82.02483 181.66486 -140.14437 63.2776 148.8 66.3)"/><circle r="1" fill="#1a2a1f" transform="matrix(21.1615 24.9389 -17.85736 15.15256 1.9 153.7)"/><circle r="1" fill="#fff" transform="rotate(174.9 71.4 31.5)scale(49.2727 7.58434)"/><circle r="1" fill="#c7cbba" transform="matrix(4.0718 12.99315 -131.65008 41.25663 6.8 33.7)"/><ellipse cx="63" cy="93" fill="#e5e7e3" rx="12" ry="30"/><path fill="#526156" d="m240 62-5 138-78 6z"/><path fill="#444f44" d="m96 187 82-22-167-4z"/><circle r="1" fill="#d0decd" transform="matrix(11.98345 -18.1579 82.85817 54.68289 241 0)"/></g></g></svg>