<svg xmlns="http://www.w3.org/2000/svg" width="300" height="225"><g filter="blur(12px)"><rect width="200%" height="200%" x="-50%" y="-50%" fill="#9e5e4e"/><rect width="100%" height="100%" fill="#9e5e4e"/><g fill-opacity=".5" transform="translate(.6 .6)scale(1.17188)"><circle r="1" fill="#00d7ff" transform="matrix(-182.0366 178.57121 -49.09788 -50.05069 0 68.8)"/><path fill="#fdc0ad" d="M139.3-1.7 225 78 94.7 217.7 9 138z"/><circle cx="22" cy="24" r="68" fill="#00a0ed"/><circle r="1" fill="#c8b6b4" transform="rotate(153.5 109.1 51.5)scale(29.81464 137.33512)"/><path fill="#007ea3" d="m-38.7 187.8 16.8-137 60.6 7.4-16.8 137z"/><circle r="1" fill="#061d22" transform="matrix(27.36854 5.07151 -7.1193 38.41945 224.6 177.5)"/><ellipse cx="41" cy="172" fill="#f5d59f" rx="17" ry="72"/><circle r="1" fill="#0091c7" transform="matrix(-10.87328 -18.12046 90.79514 -54.48213 79.4 21.2)"/></g></g></svg>