<svg xmlns="http://www.w3.org/2000/svg" width="300" height="300"><g filter="blur(12px)"><rect width="200%" height="200%" x="-50%" y="-50%" fill="#657aaf"/><rect width="100%" height="100%" fill="#657aaf"/><g fill-opacity=".5" transform="translate(.6 .6)scale(1.17188)"><ellipse cx="183" cy="204" fill="#ffc62f" rx="77" ry="113"/><circle r="1" fill="#00597d" transform="matrix(-57.44389 128.41742 -68.25917 -30.5338 33.4 189.8)"/><circle r="1" fill="#11dbff" transform="matrix(254.81738 -9.64893 2.18618 57.73463 119 41.2)"/><circle r="1" fill="#ffcd80" transform="matrix(17.74093 34.6977 -26.71194 13.65781 150.3 108.6)"/><circle r="1" fill="#ffba76" transform="rotate(75.5 -11.6 204)scale(55.08163 75.88629)"/><circle r="1" fill="#004063" transform="matrix(40.26104 22.04228 -54.91815 100.31006 50.4 211.4)"/><circle r="1" fill="#ee7d1c" transform="matrix(-27.6284 -7.06851 18.0905 -70.70958 124.6 229.5)"/><circle r="1" fill="#008fd5" transform="matrix(-18.78016 -25.31673 109.56138 -81.27352 57.5 100.2)"/></g></g></svg>