<svg xmlns="http://www.w3.org/2000/svg" width="300" height="199"><g filter="blur(12px)"><rect width="200%" height="200%" x="-50%" y="-50%" fill="#b9946a"/><rect width="100%" height="100%" fill="#b9946a"/><circle r="1" fill="#486d83" fill-opacity=".5" transform="matrix(214.65831 37.85005 -16.11972 91.41947 141 80.9)"/><circle r="1" fill="#decaad" fill-opacity=".5" transform="matrix(1.82978 -29.77358 110.2052 6.7728 50.3 113.6)"/><circle r="1" fill="#fbfcfd" fill-opacity=".5" transform="rotate(4.8 -2275 1778.5)scale(85.50508 23.08756)"/><circle r="1" fill="#373d3a" fill-opacity=".5" transform="matrix(-65.06502 15.9815 -6.36594 -25.91746 13 170.6)"/><circle r="1" fill="#514327" fill-opacity=".5" transform="matrix(-.97818 -19.98199 172.46281 -8.4426 235.8 153.4)"/><circle r="1" fill="#dcf6ff" fill-opacity=".5" transform="matrix(-51.85505 -13.48343 5.3902 -20.72985 261 .6)"/><path fill="#222d24" fill-opacity=".5" d="M90.8 106h119.6v17.6H90.8z"/><path fill="#dee0ed" fill-opacity=".5" d="M214.2 184.4 330 159.8l7.8 36.7L222 221z"/></g></svg>