<svg xmlns="http://www.w3.org/2000/svg" width="300" height="271"><g filter="blur(12px)"><rect width="200%" height="200%" x="-50%" y="-50%" fill="#4f7b94"/><rect width="100%" height="100%" fill="#4f7b94"/><g fill-opacity=".5" transform="translate(.6 .6)scale(1.17188)"><circle r="1" fill="#00d0b3" transform="rotate(149.6 -9.7 99.6)scale(39.42561 147.90403)"/><circle r="1" fill="#17bab2" transform="rotate(-42.7 322.1 -146.7)scale(69.57174 81.54109)"/><circle r="1" fill="#6f4229" transform="rotate(11.9 -294.8 317.6)scale(45.94082 30.04682)"/><circle r="1" fill="#00aab9" transform="rotate(-106.8 61.3 -45.3)scale(85.00514 45.90508)"/><circle r="1" fill="#00a896" transform="matrix(18.77922 24.65969 -109.47018 83.36541 0 34.4)"/><circle r="1" fill="#0a8d95" transform="matrix(34.2373 133.34545 -36.81623 9.4528 240.8 32.3)"/><circle r="1" fill="#4d3e4c" transform="matrix(25.26497 -16.2769 12.11297 18.80173 183.3 41.2)"/><ellipse cx="103" cy="108" fill="#82594b" rx="20" ry="33"/></g></g></svg>