<svg xmlns="http://www.w3.org/2000/svg" width="300" height="199"><g filter="blur(12px)"><rect width="200%" height="200%" x="-50%" y="-50%" fill="#599bb1"/><rect width="100%" height="100%" fill="#599bb1"/><circle r="1" fill="#535600" fill-opacity=".5" transform="matrix(-291.9687 63.65947 -20.3589 -93.37439 141.2 151.8)"/><circle r="1" fill="#466c01" fill-opacity=".5" transform="matrix(293.5662 -55.83132 10.08572 53.03163 142.2 174.8)"/><circle r="1" fill="#708f74" fill-opacity=".5" transform="matrix(2.3539 41.14633 -184.28553 10.54258 107.6 52.8)"/><circle r="1" fill="#a3a49f" fill-opacity=".5" transform="matrix(9.09661 -14.97346 70.33748 42.73111 172.3 81.7)"/><circle r="1" fill="#767200" fill-opacity=".5" transform="matrix(-72.91662 -27.7996 7.0978 -18.61706 158 124.6)"/><circle r="1" fill="#3f7b51" fill-opacity=".5" transform="matrix(41.18835 -15.7283 10.83022 28.36153 10.6 61.7)"/><circle r="1" fill="#979c96" fill-opacity=".5" transform="matrix(-17.73695 -16.93856 41.91398 -43.88958 80.2 71)"/><circle r="1" fill="#737e62" fill-opacity=".5" transform="matrix(-57.52597 -9.72979 3.72059 -21.99744 125.4 142.5)"/></g></svg>