<svg xmlns="http://www.w3.org/2000/svg" width="300" height="199"><g filter="blur(12px)"><rect width="200%" height="200%" x="-50%" y="-50%" fill="#677daf"/><rect width="100%" height="100%" fill="#677daf"/><circle r="1" fill="#160000" fill-opacity=".5" transform="matrix(-152.55494 -147.3206 146.47041 -151.67455 182.7 92.8)"/><circle r="1" fill="#ff2047" fill-opacity=".5" transform="matrix(-5.12517 -47.95745 39.33658 -4.20387 126.3 175.5)"/><circle r="1" fill="#023634" fill-opacity=".5" transform="matrix(-33.4136 -128.89877 49.99416 -12.95966 263.4 60.3)"/><path fill="#ffc5bc" fill-opacity=".5" d="m199.5 139.1-25.7 14 7 20.8 24-28.4z"/><circle r="1" fill="#659ba2" fill-opacity=".5" transform="rotate(-159.5 105.7 31.2)scale(97.82412 11.18557)"/><circle r="1" fill="#539484" fill-opacity=".5" transform="matrix(-95.93641 -30.844 4.66356 -14.50543 196.1 56.2)"/><path fill="#002a99" fill-opacity=".5" d="m-18.2 1.8 232-20L61.6 44z"/><circle r="1" fill="#1f1618" fill-opacity=".5" transform="rotate(59.8 -90.8 53)scale(122.26633 32.84013)"/></g></svg>