<svg xmlns="http://www.w3.org/2000/svg" width="300" height="196"><g filter="blur(12px)"><rect width="200%" height="200%" x="-50%" y="-50%" fill="#6180a3"/><rect width="100%" height="100%" fill="#6180a3"/><circle r="1" fill="#381400" fill-opacity=".5" transform="matrix(5.66253 -185.4917 197.42084 6.02669 139 107.2)"/><circle r="1" fill="#a7acac" fill-opacity=".5" transform="matrix(-22.33198 -32.8944 64.8233 -44.00849 215.2 99.8)"/><circle r="1" fill="#280900" fill-opacity=".5" transform="matrix(-27.45043 -35.73672 64.65765 -49.66545 103 130.8)"/><circle r="1" fill-opacity=".5" transform="matrix(63.13938 -63.38794 26.2234 26.12057 214.4 196)"/><circle r="1" fill="#001300" fill-opacity=".5" transform="matrix(-4.5786 25.4468 -56.2479 -10.1206 273.3 23.9)"/><circle r="1" fill="#ffd892" fill-opacity=".5" transform="matrix(7.91975 -11.7068 22.66358 15.3321 192.2 88.5)"/><circle r="1" fill="#000400" fill-opacity=".5" transform="matrix(1.14635 -31.5987 21.94575 .79616 69 60)"/><circle r="1" fill="#000004" fill-opacity=".5" transform="matrix(-9.11621 15.25229 -86.48 -51.68866 21.8 131.3)"/></g></svg>