<svg xmlns="http://www.w3.org/2000/svg" width="299" height="414"><g filter="blur(12px)"><rect width="200%" height="200%" x="-50%" y="-50%" fill="#928162"/><rect width="100%" height="100%" fill="#928162"/><g fill-opacity=".5" transform="translate(.8 .8)scale(1.61719)"><circle r="1" fill="#ece4ce" transform="rotate(-100.8 100.4 27.6)scale(158.19926 162.08686)"/><circle r="1" fill="#3e5f5d" transform="rotate(177.7 47.8 97)scale(31.61229 50.8142)"/><circle r="1" fill="#fbe8d1" transform="rotate(178.7 4.7 97.3)scale(51.81124 88.94089)"/><path fill="#120700" d="m64.7 21.8-21.6 1.8 73.2-8.3-77.6 35.1z"/><circle r="1" fill="#1b1100" transform="rotate(-139.4 72.2 -6)scale(28.78059 5.12148)"/><ellipse cx="88" cy="105" fill="#f2ddbe" rx="43" ry="37"/><path fill="#064039" d="m158.2 99.1-8.9 1.3-7.5-53.5 8.9-1.3z"/><path d="m50 134 64 15-35 5z"/></g></g></svg>