<svg xmlns="http://www.w3.org/2000/svg" width="300" height="185"><g filter="blur(12px)"><rect width="200%" height="200%" x="-50%" y="-50%" fill="#af8668"/><rect width="100%" height="100%" fill="#af8668"/><g fill-opacity=".5" transform="translate(.6 .6)scale(1.17188)"><circle r="1" fill="#000005" transform="matrix(-245.9007 9.71435 -3.7428 -94.74206 123.6 37)"/><circle r="1" fill="#e7b890" transform="matrix(-28.2819 -7.0324 12.76947 -51.35442 104.5 90.3)"/><ellipse cx="39" cy="53" fill="#000019" rx="54" ry="49"/><ellipse cx="154" rx="89" ry="41"/><path fill="#fde0bd" d="M241.8 88.7 189 73.6l5.3-18.3L247 70.4z"/><circle r="1" fill="#241c19" transform="rotate(19.8 -327 778.8)scale(36.59711 203.30801)"/><circle r="1" fill="#002333" transform="matrix(-36.94937 84.42743 -24.21603 -10.59806 30.1 88)"/><circle r="1" fill="#fff" transform="matrix(.21507 4.75158 -40.8368 1.8484 49 0)"/></g></g></svg>