<svg xmlns="http://www.w3.org/2000/svg" width="300" height="432"><g filter="blur(12px)"><rect width="200%" height="200%" x="-50%" y="-50%" fill="#b07160"/><rect width="100%" height="100%" fill="#b07160"/><g fill-opacity=".5" transform="translate(.8 .8)scale(1.6875)"><circle r="1" fill="#00122b" transform="matrix(-87.71287 153.73826 -110.42797 -63.00289 126 158.6)"/><circle r="1" fill="#fff" transform="matrix(-27.79018 10.00508 -6.56997 -18.2488 81.8 225.7)"/><circle r="1" transform="matrix(42.19665 .2571 -.4559 74.82374 147.8 222.5)"/><ellipse cx="60" cy="127" fill="#005d91" rx="91" ry="54"/><circle r="1" transform="matrix(28.61127 -71.1985 31.84947 12.79878 19.1 219.5)"/><circle r="1" fill="#fd8f49" transform="matrix(16.70335 60.7246 -26.07359 7.17199 171.1 90.4)"/><circle r="1" fill="#a53500" transform="matrix(30.97326 -8.67831 13.84468 49.41223 54.3 50.2)"/><circle r="1" transform="matrix(-12.57553 -64.09799 34.05598 -6.68152 149.7 211.4)"/></g></g></svg>