<svg xmlns="http://www.w3.org/2000/svg" width="300" height="198"><g filter="blur(12px)"><rect width="200%" height="200%" x="-50%" y="-50%" fill="#57a791"/><rect width="100%" height="100%" fill="#57a791"/><g fill-opacity=".5" transform="translate(.6 .6)scale(1.17188)"><circle cx="92" cy="27" r="216" fill="#000016"/><circle r="1" fill="#fffffe" transform="rotate(119.2 44 89.9)scale(14.84769 71.15913)"/><circle r="1" transform="matrix(3.8561 26.24678 -91.4863 13.4409 25.4 50.5)"/><circle r="1" fill="#0055e0" transform="matrix(91.55257 2.87716 -.96472 30.69777 118.4 0)"/><circle r="1" fill="#000028" transform="rotate(76.4 92.9 163)scale(28.31865 81.30174)"/><circle r="1" fill="#829c61" transform="matrix(50.49071 1.58673 -.93047 29.608 70 122.7)"/><circle r="1" fill="#0c1d06" transform="matrix(-9.87334 14.93461 -44.2482 -29.25267 151.3 127.7)"/><circle r="1" fill="#000700" transform="matrix(21.20521 11.18024 -16.1278 30.5891 34.2 160.5)"/></g></g></svg>