<svg xmlns="http://www.w3.org/2000/svg" width="300" height="199"><g filter="blur(12px)"><rect width="200%" height="200%" x="-50%" y="-50%" fill="#527c9f"/><rect width="100%" height="100%" fill="#527c9f"/><circle r="1" fill="#652200" fill-opacity=".5" transform="matrix(25.3996 92.7765 -158.76887 43.46645 128.7 128.2)"/><circle r="1" fill="#fff" fill-opacity=".5" transform="matrix(-47.24928 -23.66068 6.58643 -13.1528 57.8 193.7)"/><circle r="1" fill="#f8f1e3" fill-opacity=".5" transform="matrix(-55.02673 -15.76941 17.17443 -59.9295 .6 16.8)"/><circle r="1" fill="#ffffe7" fill-opacity=".5" transform="matrix(-7.06532 -28.33745 146.83954 -36.6112 275.9 198.5)"/><path fill="#a34e00" fill-opacity=".5" d="M236.1 12.3h54v35.2h-54z"/><circle r="1" fill="#663200" fill-opacity=".5" transform="matrix(-97.60917 -17.91464 12.0071 -65.42152 145.2 129.2)"/><path fill="#faffff" fill-opacity=".5" d="M33.4 194h219.1v5.8H33.4z"/><circle r="1" fill="#e2e2d3" fill-opacity=".5" transform="matrix(11.78665 -5.42125 15.91572 34.60326 293.1 80.7)"/></g></svg>