<svg xmlns="http://www.w3.org/2000/svg" width="299" height="456"><g filter="blur(12px)"><rect width="200%" height="200%" x="-50%" y="-50%" fill="#a87458"/><rect width="100%" height="100%" fill="#a87458"/><g fill-opacity=".5" transform="translate(.9 .9)scale(1.78125)"><circle r="1" fill="#04142b" transform="rotate(-159.5 46.2 -3.7)scale(142.63721 46.22769)"/><circle r="1" transform="matrix(-22.59138 .09119 -.55628 -137.81423 167 190.3)"/><circle r="1" fill="#272135" transform="rotate(78 -125.8 128.7)scale(163.83411 34.47365)"/><ellipse cx="120" cy="111" fill="#d0b3b4" rx="25" ry="99"/><circle r="1" fill="#25141d" transform="matrix(-1.36917 -11.48222 66.3411 -7.9107 111.3 236.8)"/><circle r="1" transform="matrix(.17157 16.08984 -128.22292 1.3673 84.7 0)"/><path d="m138 161 45 108.9-33.3-118.8-41-27.4z"/><circle r="1" transform="matrix(-.77604 -160.11727 5.28292 -.0256 11 130.5)"/></g></g></svg>