<svg xmlns="http://www.w3.org/2000/svg" width="300" height="191"><g filter="blur(12px)"><rect width="200%" height="200%" x="-50%" y="-50%" fill="#857769"/><rect width="100%" height="100%" fill="#857769"/><g fill-opacity=".5" transform="translate(.6 .6)scale(1.17188)"><circle r="1" fill="#130c07" transform="matrix(30.18952 -67.50654 81.4806 36.43884 255 77)"/><path fill="#fff" d="M148 9-23.5 24-26-5l171.3-15z"/><circle r="1" fill="#453930" transform="rotate(-122.2 31.3 37.6)scale(48.91634 104.62301)"/><circle r="1" fill="#54483e" transform="matrix(-.38501 34.74862 -70.2323 -.77817 164.4 63)"/><path fill="#cdc5ba" d="M61 143h89v20H61z"/><circle r="1" fill="#140e09" transform="matrix(-9.06683 26.48205 -30.53554 -10.45465 246.8 44)"/><circle r="1" fill="#c8c0b6" transform="matrix(-45.44108 -3.23543 .61276 -8.60612 148 133.4)"/><ellipse cx="15" cy="162" fill="#040000" rx="47" ry="7"/></g></g></svg>