<svg xmlns="http://www.w3.org/2000/svg" width="300" height="205"><g filter="blur(12px)"><rect width="200%" height="200%" x="-50%" y="-50%" fill="#997469"/><rect width="100%" height="100%" fill="#997469"/><g fill-opacity=".5" transform="translate(.6 .6)scale(1.17188)"><circle r="1" fill="#e8ffff" transform="matrix(-53.51407 -34.89629 6.94726 -10.65375 198.8 20)"/><circle r="1" fill="#102932" transform="matrix(-40.24885 27.55896 -11.91214 -17.39725 82.1 39.2)"/><path d="m-27.8 49 50.1-77.2L45.8-13-4.3 64.2z"/><ellipse cx="158" cy="82" fill="#fff" rx="21" ry="15"/><circle r="1" fill="#434d4f" transform="matrix(13.55427 22.52295 -54.45985 32.77383 139.2 132)"/><circle r="1" fill="#c6c3c2" transform="matrix(-1.98848 21.40701 -51.41607 -4.776 196.5 160.2)"/><circle r="1" fill="#45505c" transform="matrix(-59.91281 -16.89547 7.51826 -26.66042 150.4 36.4)"/><circle r="1" transform="rotate(-49 199.5 68)scale(12.91281 46.3221)"/></g></g></svg>