<svg xmlns="http://www.w3.org/2000/svg" width="298" height="450"><g filter="blur(12px)"><rect width="200%" height="200%" x="-50%" y="-50%" fill="#a18a6c"/><rect width="100%" height="100%" fill="#a18a6c"/><circle r="1" fill-opacity=".5" transform="matrix(17.10056 -296.57763 260.73322 15.03378 143.9 234.2)"/><circle r="1" fill="#000313" fill-opacity=".5" transform="matrix(-51.79139 289.35728 -74.9797 -13.42044 12.6 236.2)"/><circle r="1" fill="#001520" fill-opacity=".5" transform="matrix(294.89218 -35.90716 9.6858 79.54589 282 228)"/><path fill="#d8bb96" fill-opacity=".5" d="m229.6 315.4 15 43.2-99.8 34.4-14.9-43.2z"/><circle r="1" fill="#cfac7d" fill-opacity=".5" transform="rotate(147.8 -7.6 191.6)scale(35.56171 46.07194)"/><path fill="#e7d3b3" fill-opacity=".5" d="m95.8 120.4 42.2 79.1-12.3-151.2z"/><circle r="1" fill="#002935" fill-opacity=".5" transform="matrix(-8.28365 -296.55928 78.9587 -2.20552 285.4 157.5)"/><path fill="#e9d9c0" fill-opacity=".5" d="m167 230 30.8-136.3.8-32-34.8 43.4z"/></g></svg>