<svg xmlns="http://www.w3.org/2000/svg" width="300" height="209"><g filter="blur(12px)"><rect width="200%" height="200%" x="-50%" y="-50%" fill="#a78e62"/><rect width="100%" height="100%" fill="#a78e62"/><g fill-opacity=".5" transform="translate(.6 .6)scale(1.17188)"><circle r="1" fill="#000100" transform="matrix(-17.69278 -63.7981 240.81055 -66.78268 180 153.6)"/><circle r="1" fill="#d7ffff" transform="matrix(179.64332 14.45376 -5.22087 64.88934 102.5 6.7)"/><circle r="1" fill="#231d02" transform="rotate(93.3 -48.4 67.8)scale(64.55886 32.62558)"/><circle cx="204" cy="178" r="52" fill="#001906"/><circle r="1" fill="#9a733b" transform="matrix(-151.94464 13.16312 -2.99404 -34.56088 164.8 103.1)"/><circle r="1" fill="#021" transform="matrix(-187.46655 16.8773 -2.4199 -26.87928 111.7 165)"/><circle r="1" fill="#bfd9ff" transform="matrix(182.37748 -6.56929 1.32787 36.86465 158 27)"/><path fill="#7c4913" d="M121.3 79.2 83.7 56 70.1 96.5 234.6 85z"/></g></g></svg>