<svg xmlns="http://www.w3.org/2000/svg" width="300" height="199"><g filter="blur(12px)"><rect width="200%" height="200%" x="-50%" y="-50%" fill="#7383ac"/><rect width="100%" height="100%" fill="#7383ac"/><g fill-opacity=".5" transform="translate(.6 .6)scale(1.17188)"><circle r="1" fill="#050000" transform="rotate(85.8 -25.5 137.8)scale(45.10095 255.00001)"/><path d="M100-17.8 112.7 48-10 71.8-22.7 6z"/><circle r="1" fill="#fff" transform="matrix(4.92908 -45.7145 96.21308 10.374 194.5 0)"/><circle r="1" fill="#ffb09a" transform="matrix(45.09622 -20.7783 12.99585 28.20558 74 86.7)"/><circle r="1" transform="matrix(4.16394 -30.79714 140.95167 19.05741 5.8 139.6)"/><circle r="1" fill="#fcc593" transform="rotate(117.2 41.4 123.6)scale(76.53152 10.85059)"/><ellipse cx="180" cy="13" fill="#fff" rx="73" ry="20"/><ellipse cx="23" cy="43" fill="#0b0000" rx="50" ry="24"/></g></g></svg>