<svg xmlns="http://www.w3.org/2000/svg" width="300" height="205"><g filter="blur(12px)"><rect width="200%" height="200%" x="-50%" y="-50%" fill="#6891a2"/><rect width="100%" height="100%" fill="#6891a2"/><g fill-opacity=".5" transform="translate(.6 .6)scale(1.17188)"><circle r="1" transform="matrix(19.35906 37.6352 -51.16895 26.32064 96.7 161)"/><circle r="1" fill="#000800" transform="rotate(-65.4 119 -165.6)scale(36.7499 75.93059)"/><circle r="1" fill="#ffffe7" transform="matrix(-8.51523 17.54008 -41.43892 -20.11746 198.3 62)"/><ellipse cx="203" cy="135" fill="#c65f31" rx="64" ry="53"/><circle r="1" fill="#ec7b43" transform="matrix(26.93607 -63.628 43.1933 18.28531 23.8 111)"/><circle r="1" fill="#fffdff" transform="matrix(-5.12178 25.94335 -48.2831 -9.53214 100.8 17.6)"/><path d="m71 213.4-24.6-58 86.6-36.8 24.6 58zM3 144l19-42 60-19z"/></g></g></svg>