<svg xmlns="http://www.w3.org/2000/svg" width="300" height="452"><g filter="blur(12px)"><rect width="200%" height="200%" x="-50%" y="-50%" fill="#998567"/><rect width="100%" height="100%" fill="#998567"/><circle r="1" fill="#ffd9b4" fill-opacity=".5" transform="matrix(.55023 63.59638 -271.4654 2.34869 148.6 54.6)"/><circle r="1" fill="#483e2e" fill-opacity=".5" transform="matrix(26.15903 -100.42608 129.44327 33.71745 170.1 230.5)"/><circle r="1" fill="#fbebcb" fill-opacity=".5" transform="matrix(-32.92155 -24.25988 61.7117 -83.74504 8.2 132.8)"/><circle r="1" fill="#d6bb9a" fill-opacity=".5" transform="matrix(31.6548 101.61104 -43.09275 13.42465 16 300.4)"/><circle r="1" fill="#c44e33" fill-opacity=".5" transform="rotate(-168 87 23.7)scale(9.51251 73.72606)"/><circle r="1" fill="#dbc198" fill-opacity=".5" transform="matrix(24.30812 -52.4272 93.13184 43.18102 299.3 89)"/><circle r="1" fill="#866d56" fill-opacity=".5" transform="rotate(93.7 -61.4 318)scale(77.93386 135.91887)"/><circle r="1" fill="#4f3e2b" fill-opacity=".5" transform="matrix(5.7823 31.27069 -81.24765 15.02358 196.3 291.4)"/></g></svg>