<svg xmlns="http://www.w3.org/2000/svg" width="300" height="210"><g filter="blur(12px)"><rect width="200%" height="200%" x="-50%" y="-50%" fill="#7da760"/><rect width="100%" height="100%" fill="#7da760"/><g fill-opacity=".5" transform="translate(.6 .6)scale(1.17188)"><circle cx="108" cy="54" r="155" fill="#293c4c"/><circle r="1" fill="#00c0ff" transform="matrix(-99.33264 51.7093 -11.60146 -22.2862 35.2 0)"/><circle r="1" fill="#fff" transform="matrix(-16.71486 6.02593 -11.18665 -31.0298 245.3 169)"/><circle r="1" fill="#ffe8a3" transform="matrix(10.78296 -27.80105 13.3242 5.16794 231.8 59.7)"/><circle r="1" fill="#ffc58b" transform="matrix(24.69234 16.57835 -10.0854 15.02153 197.8 105.2)"/><circle r="1" fill="#9e151d" transform="matrix(14.312 -24.0086 30.77201 18.3438 97.6 43.3)"/><ellipse cx="114" cy="167" fill="#274a36" rx="68" ry="105"/><circle r="1" fill="#aec784" transform="matrix(4.7036 -13.79578 49.82603 16.98794 52.8 83.9)"/></g></g></svg>