<svg xmlns="http://www.w3.org/2000/svg" width="300" height="200"><g filter="blur(12px)"><rect width="200%" height="200%" x="-50%" y="-50%" fill="#a77d58"/><rect width="100%" height="100%" fill="#a77d58"/><g fill-opacity=".5" transform="translate(.6 .6)scale(1.17188)"><circle r="1" fill="#36241d" transform="matrix(8.76943 69.41721 -243.46856 30.75723 243.5 55.2)"/><circle r="1" fill="#26120d" transform="matrix(-42.58166 11.56239 -53.79492 -198.11451 255 107.6)"/><circle r="1" fill="#b29d80" transform="matrix(64.519 -67.12248 26.61621 25.58385 102.8 107.6)"/><circle r="1" fill="#451c06" transform="matrix(-19.77526 48.80317 -21.45527 -8.69377 18.3 108.1)"/><circle r="1" fill="#9a7054" transform="matrix(12.04525 -29.2835 43.94452 18.0758 191 105.3)"/><ellipse cx="45" cy="13" fill="#e9c598" rx="17" ry="34"/><path fill="#2e3112" d="m106.5 130.6 14-24.2 33 19-14 24.2z"/><path fill="#fadab3" d="m94.6 118.7-1.4 20-47.8-3.4 1.4-20z"/></g></g></svg>