<svg xmlns="http://www.w3.org/2000/svg" width="300" height="199"><g filter="blur(12px)"><rect width="200%" height="200%" x="-50%" y="-50%" fill="#747c6c"/><rect width="100%" height="100%" fill="#747c6c"/><g fill-opacity=".5" transform="translate(.6 .6)scale(1.17188)"><circle r="1" fill="#fff" transform="matrix(-46.38602 17.63012 -8.67444 -22.82303 185.6 108.9)"/><circle r="1" fill="#010000" transform="matrix(162.40661 15.66534 -2.75268 28.53775 201.6 168)"/><circle r="1" fill="#892700" transform="matrix(-4.25698 45.23993 -133.01288 -12.51623 227.9 38.7)"/><circle r="1" transform="rotate(31.9 -112.3 488)scale(25.93869 93.1332)"/><circle r="1" fill="#c8591b" transform="matrix(-50.6955 -91.83472 110.81567 -61.17354 52 69.1)"/><ellipse cx="98" cy="34" fill="#ffd169" rx="29" ry="39"/><circle r="1" fill="#fffffc" transform="matrix(22.7608 -19.57738 16.86306 19.60511 189.7 116.8)"/><path fill="#070918" d="m155 65 90 23 26-99z"/></g></g></svg>